<?xml version="1.0" encoding="UTF-8" standalone="no"?>
<!DOCTYPE svg PUBLIC "-//W3C//DTD SVG 1.1//EN" "http://www.w3.org/Graphics/SVG/1.1/DTD/svg11.dtd">
<svg width="100%" height="100%" viewBox="0 0 422 422" version="1.1" xmlns="http://www.w3.org/2000/svg" xmlns:xlink="http://www.w3.org/1999/xlink" xml:space="preserve" xmlns:serif="http://www.serif.com/" style="fill-rule:evenodd;clip-rule:evenodd;stroke-linejoin:round;stroke-miterlimit:2;">
    <g transform="matrix(1,0,0,1,-6300.41,-4207.14)">
        <g transform="matrix(1,0,0,1,3855.48,3674)">
            <g transform="matrix(-0.927145,0,0,-0.927145,5239.26,1252.58)">
                <path d="M2892.89,747.213C2880.9,753.856 2824.29,785.84 2746.47,772.944C2683.95,762.582 2622.51,725.156 2586.67,660.146C2581.62,650.993 2562.5,615.852 2559.3,566.423C2559.18,564.615 2558.55,556.749 2559.02,541.032C2559.27,532.567 2560.41,497.466 2577.68,457.508C2622.25,354.427 2737.56,298.53 2849.05,329.429C2881.25,338.352 2911.56,354.851 2935.48,374.911C2935.65,375.05 2952.92,389.247 2967.5,408.053C2973.62,415.96 2979.27,424.285 2984.38,432.951C2984.61,433.351 2988.95,440.839 2993.65,451.132C2998.72,462.244 3004.43,476.764 3008.72,496.493C3011.5,509.275 3016.52,536.504 3012.26,572.207C3006.49,620.58 2987.29,653.285 2981.01,663.676C2952.51,710.776 2915.34,734.235 2899.14,743.476C2898.64,743.765 2898.68,743.832 2892.89,747.213ZM2871.31,709.718C2874.71,707.736 2876.16,706.967 2881.56,702.974C2924.94,670.883 2940.03,630.314 2945.01,615.744C2959.36,573.81 2954.03,538.851 2951.16,524.047C2950.33,519.776 2947.58,505.462 2939.33,486.417C2935.62,477.861 2932.22,471.67 2927.11,463.043C2927.04,462.929 2921.45,453.022 2911.17,440.307C2909.18,437.846 2896.52,421.991 2876.6,407.659C2869.49,402.542 2823.68,369.012 2756.94,375.031C2700.83,380.09 2650.83,411.737 2621.42,458.268C2603.44,486.707 2598.22,512.164 2596.58,520.526C2595.99,523.54 2593.42,537.092 2593.3,550.066C2592.97,583.039 2601.39,606.81 2604.91,616.108C2632.16,688.215 2700.42,735.363 2776.74,735.679C2826.11,735.883 2860.24,716.266 2871.25,709.753L2871.31,709.718ZM2884.3,550.411C2879.91,543.262 2875.33,536.23 2870.94,529.08C2857.26,506.8 2829.34,458.02 2825.78,451.806C2824.48,449.53 2824.36,449.548 2823.92,446.96C2823.69,445.575 2823.71,444.127 2823.97,442.746C2824.14,441.844 2825.27,435.75 2831.93,434.495C2836.12,433.708 2839.39,435.702 2839.95,436.041C2842.25,437.439 2842.17,437.568 2843.83,439.686C2847.95,444.957 2874.45,478.81 2894.98,505.899C2897.08,508.666 2912.98,529.646 2920.91,540.695C2922.18,542.479 2922.23,542.467 2923.01,544.519C2923.9,546.837 2923.98,546.831 2924.22,549.299C2924.52,552.46 2923.85,555.051 2923.72,555.535C2923.1,557.938 2923.05,557.927 2921.79,560.066C2921.1,561.255 2920.4,562.439 2911.68,574.018C2896.33,594.386 2881.6,611.975 2878.9,615.204C2862.66,634.608 2862.61,634.558 2846.01,653.66C2844.31,655.624 2844.36,655.724 2842.09,656.988C2841.52,657.304 2838.16,659.173 2834.06,658.322C2827.63,656.989 2826.63,650.937 2826.48,650.051C2826.25,648.664 2826.25,647.218 2826.48,645.832C2826.91,643.323 2827,643.332 2828.24,641.106C2838.32,622.963 2838.25,622.928 2848.68,604.977C2855.56,593.121 2861.8,583.271 2862.98,581.408C2865.5,577.435 2867.99,573.448 2870.66,569.574C2875.1,563.113 2879.86,556.872 2884.3,550.411ZM2797.23,466.316C2797.97,466.514 2802.2,467.649 2804.79,472.139C2805.59,473.522 2806.15,475.084 2806.36,476.667C2806.58,478.297 2806.2,479.954 2806.06,481.593C2806.04,481.835 2805.9,482.057 2805.87,482.299C2805.52,484.844 2805.27,487.403 2804.91,489.947C2804.26,494.451 2799.7,526.442 2795.45,546.03C2794.73,549.328 2793.97,552.617 2793.11,555.882C2790.19,566.951 2784.96,581.026 2784.16,583.18C2783.41,585.219 2780.52,592.979 2774.08,608.418C2773.66,609.412 2772.61,611.942 2768.76,620.791C2768.44,621.515 2766.68,625.565 2762.19,628.158C2760.86,628.93 2759.37,629.515 2757.85,629.77C2757.83,629.774 2753.47,629.618 2753.46,629.614C2752.18,628.931 2750.73,628.488 2749.6,627.56C2745.97,624.562 2745.05,620.152 2744.9,619.416C2744.33,616.663 2744.37,616.639 2744.7,613.848C2746.49,598.677 2746.42,598.669 2748.6,583.546C2748.94,581.246 2750.82,568.229 2753.81,554.964C2754.49,551.944 2755.2,548.93 2756.02,545.944C2760.35,530.045 2769.96,505.324 2771.31,501.844C2773.76,495.531 2776.24,489.227 2778.76,482.943C2779.72,480.558 2780.79,478.218 2781.76,475.838C2781.85,475.616 2781.88,475.374 2781.94,475.142C2782.14,474.404 2783.27,470.169 2787.76,467.576C2792.26,464.984 2796.49,466.119 2797.23,466.316ZM2668.48,550.056C2673.13,557.259 2678,564.312 2682.64,571.514C2689.57,582.256 2700.7,600.69 2702.24,603.244C2704.09,606.309 2716.48,626.849 2725.17,641.666C2725.51,642.251 2727.45,645.553 2726.74,650C2726.6,650.898 2725.62,657.007 2719.07,658.401C2714.93,659.282 2711.59,657.386 2711.02,657.065C2708.7,655.755 2708.77,655.639 2707.05,653.605C2703.12,648.938 2678.14,619.31 2658.35,594.878C2642.13,574.865 2633.73,563.946 2631.64,561.221C2631.17,560.616 2630.79,559.952 2630.37,559.313C2628.61,556.63 2628.16,553.271 2628.09,552.717C2628.02,552.222 2627.68,549.64 2628.33,546.477C2628.35,546.354 2629.22,543.525 2629.25,543.468C2629.74,542.537 2630.2,541.591 2630.76,540.706C2640.66,525.171 2656.7,503.038 2659.04,499.818C2661.43,496.522 2670.55,483.937 2689.52,459.076C2690.74,457.476 2693.85,453.392 2704.91,439.172C2705.32,438.64 2707.65,435.639 2712.03,434.68C2712.92,434.486 2718.95,433.165 2722.6,438.693C2724.89,442.174 2724.42,445.998 2724.34,446.644C2724.03,449.185 2723.92,449.178 2722.78,451.466C2712.12,472.692 2712.21,472.729 2701.22,493.787C2700.13,495.859 2694.41,506.828 2687.25,519.448C2684.86,523.663 2682.48,527.887 2679.95,532.018C2676.22,538.091 2672.21,543.983 2668.48,550.056Z" style="fill:rgb(241,84,14);"/>
            </g>
        </g>
    </g>
</svg>
