<?xml version="1.0" encoding="UTF-8" standalone="no"?>
<!DOCTYPE svg PUBLIC "-//W3C//DTD SVG 1.1//EN" "http://www.w3.org/Graphics/SVG/1.1/DTD/svg11.dtd">
<svg width="100%" height="100%" viewBox="0 0 422 422" version="1.1" xmlns="http://www.w3.org/2000/svg" xmlns:xlink="http://www.w3.org/1999/xlink" xml:space="preserve" xmlns:serif="http://www.serif.com/" style="fill-rule:evenodd;clip-rule:evenodd;stroke-linejoin:round;stroke-miterlimit:2;">
    <g transform="matrix(1,0,0,1,-5736.41,-4207.14)">
        <g transform="matrix(1,0,0,1,3855.48,3674)">
            <g transform="matrix(0.839898,0,0,0.897999,203.217,266)">
                <path d="M2131.12,327.177C2144.35,320.318 2206.84,287.296 2292.74,300.61C2361.76,311.309 2429.58,349.949 2469.14,417.069C2474.71,426.52 2495.83,462.801 2499.36,513.834C2499.49,515.701 2500.18,523.822 2499.66,540.049C2499.39,548.789 2498.14,585.029 2479.07,626.285C2429.87,732.71 2302.58,790.422 2179.5,758.521C2143.96,749.307 2110.5,732.273 2084.09,711.562C2083.91,711.419 2064.85,696.761 2048.76,677.345C2041.99,669.18 2035.76,660.585 2030.12,651.638C2029.86,651.225 2025.07,643.494 2019.89,632.867C2014.29,621.395 2007.98,606.403 2003.25,586.034C2000.18,572.837 1994.64,544.724 1999.34,507.863C2005.72,457.92 2026.9,424.153 2033.84,413.425C2065.3,364.796 2106.33,340.576 2124.21,331.035C2124.77,330.737 2124.72,330.668 2131.12,327.177ZM2108.1,640.695C2109,641.786 2109.95,642.904 2110.93,644.044C2113.13,646.584 2127.1,662.954 2149.09,677.752C2156.94,683.034 2207.51,717.653 2281.19,711.438C2343.12,706.215 2398.32,673.541 2430.78,625.499C2450.63,596.138 2456.4,569.854 2458.2,561.221C2458.85,558.11 2461.69,544.117 2461.83,530.722C2462.19,496.679 2452.89,472.136 2449.01,462.536C2418.93,388.09 2343.57,339.411 2259.33,339.085C2204.83,338.874 2167.16,359.128 2155,365.853L2154.93,365.889C2151.18,367.935 2149.58,368.729 2143.62,372.852C2095.73,405.984 2079.07,447.869 2073.57,462.913C2057.74,506.208 2063.62,542.301 2066.79,557.586C2067.62,561.618 2070.24,574.323 2077.64,591.505L2118.45,440.153C2120.8,431.519 2127.97,428.023 2129.2,427.423C2137.63,423.314 2145.22,426.007 2146.52,426.467C2147.1,426.673 2150.61,427.919 2153.11,430.262C2153.8,430.909 2154.55,431.499 2155.17,432.203C2155.93,433.06 2156.8,433.892 2157.23,434.929C2170.28,466.467 2182.99,498.128 2195.81,529.751C2206.69,499.595 2217.53,469.428 2228.49,439.299C2228.83,438.367 2230.74,433.129 2236.76,429.715C2242.69,426.351 2248.5,427.16 2249.53,427.304C2252.08,427.659 2252.07,427.741 2254.43,428.702C2256.6,429.588 2256.63,429.563 2258.48,430.948C2259.28,431.543 2263.77,434.894 2265.16,441.107C2277.96,498.315 2278,498.304 2290.24,555.621C2296.4,584.509 2302.29,613.448 2308.39,642.349C2308.67,643.691 2309.04,645.015 2309.37,646.348C2309.54,647.056 2310.54,651.12 2307.74,655.296C2306.87,656.582 2305.73,657.742 2304.41,658.624C2303.77,659.053 2300.07,661.524 2294.81,660.683C2289.71,659.869 2287.15,656.516 2286.71,655.933C2285.74,654.661 2285.18,653.14 2284.64,651.662C2284.16,650.366 2284.02,648.978 2283.65,647.652L2245.07,509.963C2235.55,537.646 2226.05,565.334 2216.46,592.995C2214.87,597.601 2211.76,600.411 2211.18,600.931C2204.72,606.77 2197.1,606.375 2195.79,606.307C2186.81,605.841 2181.89,600.331 2181.05,599.383C2180.32,598.571 2179.51,597.773 2179.09,596.788C2166.99,567.974 2155.17,539.063 2143.29,510.17L2108.1,640.695ZM2360.07,635.306C2353.62,629.683 2347.24,623.999 2340.77,618.391C2334.56,612.996 2328.24,607.704 2322.03,602.3C2321.5,601.836 2321,601.333 2320.56,600.793C2319.65,599.683 2319.66,599.672 2319.08,598.382C2318.38,596.852 2318.29,596.87 2318.03,595.225C2317.91,594.444 2317.18,589.856 2320.98,585.749C2323.94,582.542 2327.73,581.93 2328.4,581.822C2330.35,581.507 2330.36,581.676 2336.44,581.654C2342.62,581.63 2348.8,581.602 2354.99,581.573L2351.43,491.063C2350.59,468.593 2350.66,468.595 2350.25,446.114C2350.1,438.074 2355.56,432.972 2356.47,432.114C2358.39,430.322 2360.71,428.83 2363.21,427.856C2363.23,427.848 2371.44,426.29 2371.45,426.292C2374.19,426.812 2377.09,426.851 2379.67,427.856C2382.17,428.83 2384.49,430.322 2386.41,432.114C2388.33,433.907 2389.92,436.076 2390.96,438.417C2392.04,440.831 2392.51,443.491 2392.64,446.102C2392.95,452.45 2392.45,458.81 2392.29,465.163C2392.06,473.798 2391.78,482.431 2391.45,491.063L2387.9,581.42C2394.12,581.396 2400.35,581.376 2406.57,581.365C2408.77,581.361 2410.49,581.907 2410.81,582.01C2412.07,582.41 2412.08,582.391 2413.19,583.063C2414.81,584.041 2414.89,583.956 2416.2,585.277C2420.14,589.234 2419.72,593.841 2419.65,594.63C2419.59,595.273 2419.27,598.844 2416.16,602C2412.61,605.606 2391.99,626.346 2384.3,634.059C2383.34,635.723 2381.75,637.613 2379.19,639.062C2376.46,640.605 2373.77,640.921 2372.07,640.938C2370.47,641.01 2368.59,640.832 2366.58,640.114C2363.26,638.928 2361.23,636.881 2360.07,635.306Z" style="fill:rgb(241,84,14);"/>
            </g>
        </g>
    </g>
</svg>
