<?xml version="1.0" encoding="UTF-8" standalone="no"?>
<!DOCTYPE svg PUBLIC "-//W3C//DTD SVG 1.1//EN" "http://www.w3.org/Graphics/SVG/1.1/DTD/svg11.dtd">
<svg width="100%" height="100%" viewBox="0 0 422 422" version="1.1" xmlns="http://www.w3.org/2000/svg" xmlns:xlink="http://www.w3.org/1999/xlink" xml:space="preserve" xmlns:serif="http://www.serif.com/" style="fill-rule:evenodd;clip-rule:evenodd;stroke-linejoin:round;stroke-miterlimit:2;">
    <g>
        <g>
            <g>
                <path d="M112.206,26.67C123.321,20.512 175.806,-9.141 247.951,2.814C305.921,12.42 362.884,47.121 396.114,107.393C400.791,115.879 418.521,148.459 421.49,194.288C421.598,195.964 422.18,203.257 421.749,217.829C421.511,225.677 420.461,258.22 404.444,295.268C363.126,390.838 256.21,442.663 152.845,414.016C122.992,405.742 94.885,390.446 72.71,371.847C72.554,371.718 56.542,358.555 43.03,341.12C37.346,333.788 32.115,326.07 27.379,318.036C27.158,317.665 23.134,310.722 18.781,301.18C14.083,290.877 8.781,277.414 4.805,259.123C2.23,247.272 -2.419,222.027 1.53,188.925C6.879,144.077 24.675,113.754 30.504,104.12C56.924,60.45 91.383,38.7 106.404,30.134C106.873,29.865 106.835,29.805 112.206,26.67ZM132.21,61.43C129.059,63.268 127.706,63.984 122.707,67.685C82.483,97.438 68.492,135.051 63.874,148.56C50.578,187.439 55.513,219.851 58.174,233.576C58.945,237.536 61.493,250.808 69.143,268.465C72.581,276.397 75.743,282.137 80.474,290.136C80.538,290.241 85.721,299.426 95.252,311.216C97.094,313.497 108.834,328.197 127.302,341.486C133.891,346.229 176.367,377.317 238.248,371.736C290.265,367.046 336.625,337.704 363.891,294.563C380.561,268.196 385.404,244.593 386.923,236.841C387.467,234.047 389.849,221.481 389.967,209.453C390.274,178.882 382.462,156.843 379.203,148.222C353.935,81.37 290.648,37.655 219.893,37.364C174.115,37.176 142.474,55.364 132.264,61.398L132.21,61.43ZM314.073,295.183C313.464,295.184 309.967,295.19 307.042,292.273C306.142,291.375 305.393,290.288 304.903,289.115C303.923,286.781 304.122,286.715 304.106,284.183C304.106,284.154 303.475,275.167 300.911,263.688C300.593,262.265 298.831,254.69 296.795,248.134C296.24,246.337 293.519,237.566 288.256,226.231C287.846,225.349 283.875,216.818 278.779,208.45C274.345,201.162 265.806,187.181 248.49,171.145C244.271,167.241 229.035,153.19 204.506,142.272C176.798,129.939 152.57,128.863 141.024,128.845C140.006,128.843 134.171,128.834 129.301,123.947C127.798,122.442 126.553,120.622 125.74,118.659C125.734,118.645 124.436,112.206 124.441,112.199C124.878,110.052 124.915,107.781 125.761,105.76C126.58,103.8 127.836,101.984 129.339,100.484C130.842,98.984 132.663,97.737 134.624,96.924C138.255,95.419 138.341,95.602 142.274,95.627C200.438,95.996 238.83,122.442 248.382,129.124C269.868,144.157 282.232,159.396 286.106,164.192C294.537,174.633 300.297,184.036 303.917,190.478C304.817,192.077 309.035,200.025 312.031,207.44C315.517,216.08 318.679,225.505 321.211,238.182C321.438,239.33 322.844,246.357 323.506,252.633C325.08,267.562 324.18,281.006 324.018,283.467C323.97,284.202 324.013,285.167 323.997,285.232C323.738,286.517 323.722,287.875 323.221,289.086C322.989,289.639 321.669,292.828 317.93,294.392C316.088,295.163 316.066,295.18 314.073,295.183ZM138.982,321.681C137.301,321.655 133.396,322.11 128.153,320.285C111.931,314.643 104.658,294.224 115.024,278.409C120.535,270.001 130.395,264.168 142.199,264.842C151.433,265.37 160.059,269.884 165.705,278.274C166.669,279.709 168.916,283.675 169.751,288.382C170.338,291.714 170.23,294.306 170.203,295.114C170.139,297.011 169.568,299.449 169.481,299.819C168.113,305.701 164.778,312.306 157.769,316.985C152.193,320.702 147.247,321.147 145.458,321.443C142.069,322.004 139.478,321.717 138.982,321.681ZM138.993,301.652L139.122,301.591C139.737,301.307 140.092,300.994 140.232,300.872L140.222,300.847C140.583,300.362 140.583,300.357 140.739,299.78C141.132,298.359 140.566,297.428 140.297,297.076L140.146,296.998C140.103,296.903 140.141,296.885 140.06,296.814C139.721,296.5 138.411,295.645 137.668,295.871C137.56,295.905 137.447,295.945 137.35,296.006C136.973,296.24 137.011,296.371 136.994,296.396L136.994,296.227L136.941,296.32C136.348,297.306 135.965,297.874 136.709,299.535L136.693,299.558C137.205,300.404 137.614,301.103 138.848,301.65L138.993,301.652ZM243.819,321.672C239.606,321.662 237.117,319.17 236.68,318.733C235.775,317.83 235.026,316.735 234.547,315.551C234.342,315.039 234.994,314.871 232.861,308.843C231.778,305.785 231.697,305.819 231.632,305.545C231.374,304.436 229.957,287.392 220.453,268.693C208.676,245.516 188.435,226.803 162.887,217.061C160.026,215.97 145.426,209.392 124.291,209.259C120.395,209.234 120.325,209.346 116.721,207.844C114.625,206.968 112.675,205.63 111.069,204.021C109.459,202.413 108.122,200.468 107.25,198.369C107.239,198.354 105.844,191.472 105.844,191.464C106.312,189.165 106.345,186.734 107.25,184.569C108.122,182.468 109.459,180.522 111.069,178.914C112.675,177.306 114.625,175.968 116.721,175.093C120.428,173.551 120.508,173.668 124.517,173.693C141.849,173.801 159.24,177.142 175.774,183.902C176.528,184.211 185.8,188.128 195.59,194.591C232.672,219.066 253.98,259.179 255.531,298.974C255.634,301.635 255.634,303.856 255.634,304.032C255.634,304.888 253.991,311.045 253.829,311.65C252.805,315.464 253.608,315.943 250.817,318.733C247.865,321.682 244.428,321.674 243.819,321.672Z" style="fill:#f1540d;"/>
            </g>
        </g>
    </g>
</svg>
