<?xml version="1.0" encoding="UTF-8" standalone="no"?>
<!DOCTYPE svg PUBLIC "-//W3C//DTD SVG 1.1//EN" "http://www.w3.org/Graphics/SVG/1.1/DTD/svg11.dtd">
<svg width="100%" height="100%" viewBox="0 0 422 422" version="1.1" xmlns="http://www.w3.org/2000/svg" xmlns:xlink="http://www.w3.org/1999/xlink" xml:space="preserve" xmlns:serif="http://www.serif.com/" style="fill-rule:evenodd;clip-rule:evenodd;stroke-linejoin:round;stroke-miterlimit:2;">
    <path d="M112.205,26.669C123.32,20.51 175.805,-9.144 247.95,2.812C305.921,12.42 362.884,47.119 396.113,107.392C400.792,115.879 418.524,148.46 421.492,194.288C421.6,195.964 422.181,203.257 421.747,217.829C421.513,225.677 420.464,258.22 404.446,295.268C363.126,390.838 256.213,442.663 152.845,414.016C122.991,405.742 94.889,390.446 72.71,371.847C72.557,371.718 56.544,358.555 43.031,341.12C37.349,333.788 32.116,326.07 27.379,318.036C27.161,317.665 23.137,310.722 18.783,301.179C14.083,290.877 8.784,277.414 4.808,259.123C2.232,247.272 -2.421,222.026 1.529,188.925C6.882,144.076 24.675,113.754 30.504,104.12C56.925,60.451 91.386,38.701 106.405,30.134C106.874,29.866 106.834,29.804 112.205,26.669ZM132.21,61.432C129.059,63.27 127.71,63.983 122.705,67.685C82.486,97.438 68.495,135.051 63.875,148.56C50.578,187.439 55.512,219.851 58.175,233.576C58.944,237.536 61.496,250.808 69.146,268.465C72.582,276.397 75.742,282.137 80.476,290.135C80.538,290.241 85.722,299.426 95.253,311.216C97.097,313.497 108.835,328.197 127.301,341.485C133.893,346.228 176.365,377.316 238.25,371.736C290.266,367.045 336.626,337.704 363.895,294.563C380.561,268.196 385.406,244.593 386.922,236.841C387.468,234.047 389.851,221.481 389.97,209.453C390.273,178.882 382.461,156.843 379.203,148.222C353.938,81.369 290.646,37.655 219.893,37.363C174.118,37.173 142.476,55.362 132.265,61.4L132.21,61.432ZM314.072,295.183C313.463,295.184 309.97,295.189 307.044,292.273C306.143,291.375 305.393,290.288 304.902,289.114C303.926,286.781 304.123,286.715 304.108,284.183C304.108,284.153 303.477,275.167 300.914,263.688C300.596,262.265 298.83,254.69 296.796,248.133C296.238,246.337 293.517,237.566 288.258,226.231C287.848,225.348 283.875,216.818 278.78,208.45C274.343,201.162 265.806,187.181 248.49,171.145C244.274,167.241 229.038,153.19 204.508,142.272C176.798,129.939 152.572,128.863 141.025,128.845C140.008,128.843 134.173,128.834 129.301,123.947C127.801,122.442 126.554,120.622 125.741,118.659C125.735,118.644 124.439,112.206 124.44,112.198C124.879,110.052 124.916,107.781 125.761,105.76C126.581,103.8 127.834,101.984 129.338,100.484C130.843,98.984 132.663,97.737 134.626,96.923C138.257,95.419 138.344,95.602 142.275,95.627C200.44,95.996 238.83,122.442 248.381,129.123C269.871,144.157 282.233,159.396 286.106,164.192C294.539,174.633 300.3,184.036 303.917,190.478C304.815,192.077 309.037,200.025 312.03,207.44C315.518,216.08 318.679,225.505 321.211,238.182C321.441,239.33 322.845,246.357 323.506,252.633C325.079,267.561 324.182,281.005 324.018,283.467C323.969,284.202 324.013,285.166 324,285.232C323.741,286.517 323.724,287.875 323.222,289.085C322.992,289.639 321.67,292.828 317.932,294.392C316.09,295.162 316.068,295.18 314.072,295.183ZM138.983,321.681C137.301,321.655 133.398,322.11 128.153,320.285C111.934,314.643 104.658,294.224 115.026,278.409C120.537,270.001 130.394,264.168 142.199,264.842C151.431,265.369 160.061,269.884 165.705,278.274C166.67,279.709 168.918,283.675 169.751,288.382C170.34,291.714 170.233,294.306 170.205,295.114C170.138,297.01 169.571,299.448 169.484,299.819C168.114,305.701 164.781,312.306 157.767,316.985C152.193,320.702 147.247,321.147 145.461,321.443C142.072,322.004 139.481,321.717 138.983,321.681ZM138.994,301.651L139.124,301.59C139.738,301.307 140.094,300.993 140.232,300.872L140.225,300.847C140.584,300.362 140.581,300.357 140.741,299.78C141.133,298.358 140.566,297.428 140.296,297.076L140.149,296.998C140.105,296.903 140.14,296.885 140.063,296.814C139.723,296.5 138.414,295.645 137.669,295.871C137.559,295.904 137.449,295.945 137.351,296.006C136.976,296.24 137.009,296.37 136.996,296.396L136.996,296.227L136.94,296.32C136.349,297.306 135.969,297.874 136.711,299.534L136.694,299.558C137.208,300.404 137.615,301.102 138.846,301.649L138.994,301.651ZM243.822,321.672C239.609,321.662 237.117,319.17 236.68,318.733C235.777,317.83 235.029,316.734 234.549,315.551C234.341,315.039 234.994,314.871 232.862,308.843C231.78,305.785 231.696,305.819 231.632,305.545C231.376,304.436 229.958,287.392 220.454,268.693C208.675,245.516 188.435,226.802 162.888,217.061C160.027,215.97 145.428,209.392 124.293,209.259C120.394,209.234 120.324,209.346 116.724,207.844C114.624,206.968 112.678,205.63 111.069,204.021C109.461,202.413 108.123,200.468 107.249,198.369C107.242,198.353 105.844,191.472 105.845,191.463C106.312,189.165 106.347,186.734 107.249,184.568C108.123,182.468 109.461,180.522 111.069,178.914C112.678,177.305 114.624,175.967 116.724,175.093C120.43,173.551 120.507,173.668 124.518,173.693C141.852,173.801 159.239,177.142 175.773,183.902C176.528,184.211 185.799,188.127 195.592,194.591C232.675,219.065 253.982,259.179 255.532,298.974C255.636,301.635 255.632,303.856 255.633,304.032C255.635,304.888 253.989,311.044 253.828,311.649C252.808,315.464 253.606,315.942 250.816,318.733C247.866,321.682 244.429,321.674 243.822,321.672Z" style="fill:rgb(31,20,25);"/>
</svg>
