<?xml version="1.0" encoding="UTF-8" standalone="no"?>
<!DOCTYPE svg PUBLIC "-//W3C//DTD SVG 1.1//EN" "http://www.w3.org/Graphics/SVG/1.1/DTD/svg11.dtd">
<svg width="100%" height="100%" viewBox="0 0 422 422" version="1.1" xmlns="http://www.w3.org/2000/svg" xmlns:xlink="http://www.w3.org/1999/xlink" xml:space="preserve" xmlns:serif="http://www.serif.com/" style="fill-rule:evenodd;clip-rule:evenodd;stroke-linejoin:round;stroke-miterlimit:2;">
    <path d="M112.205,26.669C123.32,20.51 175.805,-9.144 247.95,2.812C305.921,12.42 362.884,47.119 396.113,107.392C400.792,115.879 418.524,148.46 421.492,194.288C421.6,195.964 422.181,203.257 421.747,217.829C421.513,225.677 420.464,258.22 404.446,295.268C363.126,390.838 256.213,442.663 152.845,414.016C122.991,405.742 94.889,390.446 72.71,371.847C72.557,371.718 56.544,358.555 43.031,341.12C37.349,333.788 32.116,326.07 27.379,318.036C27.161,317.665 23.137,310.722 18.783,301.179C14.083,290.877 8.784,277.414 4.808,259.123C2.232,247.272 -2.421,222.026 1.529,188.925C6.882,144.076 24.675,113.754 30.504,104.12C56.925,60.451 91.386,38.701 106.405,30.134C106.874,29.866 106.834,29.804 112.205,26.669ZM132.21,61.432C129.059,63.27 127.71,63.983 122.705,67.685C82.486,97.438 68.495,135.051 63.875,148.56C50.578,187.439 55.512,219.851 58.175,233.576C58.944,237.536 61.496,250.808 69.146,268.465C72.582,276.397 75.742,282.137 80.476,290.135C80.538,290.241 85.722,299.426 95.253,311.216C97.097,313.497 108.835,328.197 127.301,341.485C133.893,346.228 176.365,377.316 238.25,371.736C290.266,367.045 336.626,337.704 363.895,294.563C380.561,268.196 385.406,244.593 386.922,236.841C387.468,234.047 389.851,221.481 389.97,209.453C390.273,178.882 382.461,156.843 379.203,148.222C353.938,81.369 290.646,37.655 219.893,37.363C174.118,37.173 142.476,55.362 132.265,61.4L132.21,61.432ZM124.138,283.306C123.164,283.878 122.345,284.691 121.371,285.262C120.882,285.549 120.325,285.708 119.78,285.862C116.371,286.825 113.606,285.641 113.115,285.431C112.507,285.171 109.012,283.675 107.538,279.34C107.073,277.971 107.048,276.259 107.044,275.988C107.034,275.29 107.101,274.593 107.093,273.895C106.959,260.879 106.74,247.864 106.621,234.848C106.433,214.319 106.294,193.791 106.173,173.262C106.079,157.551 106.041,141.84 105.976,126.129C105.948,119.547 110.035,115.758 110.74,115.105C111.354,114.536 112.018,114.015 112.718,113.556C113.705,112.908 119.566,109.062 127.426,112.408C127.462,112.423 129.685,113.655 129.71,113.673C130.413,114.191 131.121,114.712 131.752,115.317C136.374,119.748 165.337,147.509 189.139,171.113C204.906,186.748 204.927,186.733 206.138,188.236C207.741,190.226 207.863,190.163 208.88,192.502C209.267,193.393 209.577,194.321 209.803,195.266C210.348,197.54 210.267,197.558 210.183,199.895C210.111,201.896 210.102,201.905 209.487,203.811C209.349,204.24 208.61,206.533 206.851,208.789C205.041,211.112 204.844,210.94 124.138,283.306ZM128.901,247.195C134.369,240.857 139.836,234.518 145.3,228.177C150.771,221.828 156.181,215.427 161.695,209.116C164.51,205.894 167.472,202.802 170.287,199.581L134.181,162.881L128.901,247.195ZM313.554,312.11C313.554,312.723 313.554,316.242 310.612,319.183C309.706,320.089 308.61,320.843 307.428,321.335C306.21,321.842 304.849,321.896 303.549,322.125C303.352,322.16 303.147,322.1 302.948,322.125C299.332,322.583 295.726,323.12 292.109,323.572C290.708,323.748 281.263,324.929 274.557,325.423C270.576,325.715 234.546,328.003 228.157,328.359C219.712,328.83 211.264,329.254 202.815,329.623C194.102,330.004 194.102,329.91 185.38,329.91C184.29,329.91 178.037,329.91 172.808,324.682C171.198,323.072 169.859,321.124 168.984,319.022C168.978,319.006 167.578,312.109 167.58,312.1C168.047,309.8 168.082,307.366 168.984,305.199C169.859,303.097 171.198,301.149 172.808,299.539C174.418,297.929 176.366,296.59 178.468,295.715C180.636,294.813 183.033,294.541 185.37,294.31C187.792,294.071 190.238,294.27 192.671,294.31C196.053,294.366 199.435,294.45 202.815,294.597C211.264,294.967 219.712,295.391 228.157,295.862C234.546,296.218 270.576,298.505 274.557,298.798C281.263,299.291 290.708,300.473 292.109,300.648C295.726,301.101 299.332,301.638 302.948,302.095C303.144,302.12 303.342,302.095 303.539,302.095C304.152,302.095 307.67,302.095 310.612,305.037C313.554,307.979 313.554,311.498 313.554,312.11Z" style="fill:rgb(31,20,25);"/>
</svg>
