<?xml version="1.0" encoding="UTF-8" standalone="no"?>
<!DOCTYPE svg PUBLIC "-//W3C//DTD SVG 1.1//EN" "http://www.w3.org/Graphics/SVG/1.1/DTD/svg11.dtd">
<svg width="100%" height="100%" viewBox="0 0 422 422" version="1.1" xmlns="http://www.w3.org/2000/svg" xmlns:xlink="http://www.w3.org/1999/xlink" xml:space="preserve" xmlns:serif="http://www.serif.com/" style="fill-rule:evenodd;clip-rule:evenodd;stroke-linejoin:round;stroke-miterlimit:2;">
    <g transform="matrix(1,0,0,1,-5182.47,-4205.37)">
        <g transform="matrix(1,0,0,1,3855.48,3674)">
            <g transform="matrix(0.538756,0,0,-0.538756,586.992,1161.98)">
                <path d="M1581.8,1120.99C1602.43,1132.42 1699.85,1187.46 1833.76,1165.27C1941.36,1147.44 2047.09,1083.03 2108.77,971.158C2117.45,955.406 2150.36,894.933 2155.87,809.87C2156.07,806.759 2157.15,793.222 2156.35,766.175C2155.91,751.607 2153.96,691.203 2124.23,622.438C2047.54,445.047 1849.09,348.853 1657.23,402.026C1601.82,417.383 1549.65,445.775 1508.49,480.297C1508.2,480.536 1478.48,504.968 1453.4,537.33C1442.85,550.939 1433.14,565.265 1424.35,580.178C1423.94,580.866 1416.47,593.753 1408.39,611.465C1399.67,630.588 1389.83,655.576 1382.45,689.527C1377.67,711.524 1369.04,758.383 1376.37,819.823C1386.3,903.068 1419.33,959.351 1430.15,977.233C1479.19,1058.29 1543.15,1098.66 1571.03,1114.56C1571.9,1115.06 1571.83,1115.17 1581.8,1120.99ZM1618.93,1056.47C1613.08,1053.06 1610.57,1051.73 1601.29,1044.86C1526.63,989.635 1500.66,919.821 1492.09,894.746C1467.41,822.582 1476.57,762.421 1481.51,736.945C1482.94,729.596 1487.67,704.961 1501.87,672.187C1508.25,657.465 1514.12,646.81 1522.9,631.964C1523.02,631.768 1532.64,614.719 1550.33,592.837C1553.75,588.603 1575.54,561.317 1609.82,536.652C1622.05,527.848 1700.89,470.145 1815.75,480.503C1912.3,489.209 1998.35,543.671 2048.96,623.747C2079.9,672.687 2088.89,716.496 2091.71,730.886C2092.72,736.072 2097.14,759.395 2097.36,781.722C2097.93,838.465 2083.43,879.372 2077.38,895.374C2030.48,1019.46 1913.01,1100.6 1781.68,1101.14C1696.71,1101.49 1637.98,1067.73 1619.03,1056.53L1618.93,1056.47ZM1956.49,622.595C1955.36,622.594 1948.87,622.583 1943.44,627.997C1941.77,629.664 1940.38,631.681 1939.47,633.859C1937.65,638.19 1938.02,638.313 1937.99,643.012C1937.99,643.067 1936.82,659.748 1932.06,681.054C1931.47,683.696 1928.2,697.755 1924.42,709.925C1923.39,713.259 1918.34,729.539 1908.57,750.579C1907.81,752.217 1900.44,768.051 1890.98,783.583C1882.75,797.11 1866.9,823.061 1834.76,852.825C1826.93,860.072 1798.65,886.153 1753.12,906.418C1701.69,929.31 1656.72,931.306 1635.29,931.34C1633.4,931.343 1622.57,931.36 1613.53,940.432C1610.74,943.225 1608.43,946.602 1606.92,950.246C1606.91,950.273 1604.5,962.224 1604.51,962.238C1605.32,966.222 1605.39,970.437 1606.96,974.189C1608.48,977.827 1610.81,981.198 1613.6,983.982C1616.39,986.766 1619.77,989.081 1623.41,990.59C1630.15,993.383 1630.31,993.043 1637.61,992.997C1745.57,992.312 1816.83,943.225 1834.56,930.823C1874.44,902.919 1897.39,874.633 1904.58,865.732C1920.23,846.351 1930.92,828.898 1937.64,816.941C1939.31,813.974 1947.14,799.22 1952.7,785.458C1959.17,769.421 1965.04,751.926 1969.74,728.396C1970.16,726.266 1972.77,713.223 1974,701.574C1976.92,673.864 1975.25,648.91 1974.95,644.341C1974.86,642.977 1974.94,641.187 1974.91,641.065C1974.43,638.681 1974.4,636.16 1973.47,633.913C1973.04,632.886 1970.59,626.966 1963.65,624.063C1960.23,622.633 1960.19,622.601 1956.49,622.595ZM1631.5,573.411C1628.38,573.46 1621.13,572.615 1611.4,576.002C1581.29,586.475 1567.79,624.375 1587.03,653.73C1597.26,669.336 1615.56,680.163 1637.47,678.912C1654.61,677.933 1670.62,669.553 1681.1,653.981C1682.89,651.318 1687.06,643.956 1688.61,635.218C1689.7,629.034 1689.5,624.224 1689.45,622.723C1689.33,619.203 1688.27,614.678 1688.11,613.99C1685.57,603.072 1679.38,590.812 1666.37,582.128C1656.02,575.228 1646.84,574.402 1643.52,573.853C1637.23,572.812 1632.42,573.344 1631.5,573.411ZM1631.52,610.589L1631.76,610.702C1632.9,611.228 1633.56,611.81 1633.82,612.035L1633.8,612.083C1634.47,612.983 1634.47,612.991 1634.76,614.063C1635.49,616.701 1634.44,618.428 1633.94,619.081L1633.66,619.226C1633.58,619.402 1633.65,619.436 1633.5,619.568C1632.87,620.15 1630.44,621.738 1629.06,621.318C1628.86,621.256 1628.65,621.181 1628.47,621.067C1627.77,620.633 1627.84,620.391 1627.81,620.343L1627.81,620.657L1627.71,620.485C1626.61,618.654 1625.9,617.601 1627.28,614.518L1627.25,614.474C1628.2,612.905 1628.96,611.608 1631.25,610.592L1631.52,610.589ZM1826.09,573.428C1818.27,573.447 1813.65,578.072 1812.84,578.883C1811.16,580.559 1809.77,582.593 1808.88,584.789C1808.5,585.74 1809.71,586.052 1805.75,597.24C1803.74,602.916 1803.59,602.853 1803.47,603.362C1802.99,605.42 1800.36,637.057 1782.72,671.764C1760.86,714.784 1723.29,749.518 1675.87,767.6C1670.56,769.625 1643.46,781.834 1604.23,782.081C1597,782.127 1596.87,781.919 1590.18,784.707C1586.29,786.333 1582.67,788.818 1579.69,791.804C1576.7,794.788 1574.22,798.398 1572.6,802.294C1572.58,802.323 1569.99,815.097 1569.99,815.112C1570.86,819.379 1570.92,823.891 1572.6,827.91C1574.22,831.808 1576.7,835.42 1579.69,838.405C1582.67,841.391 1586.29,843.874 1590.18,845.497C1597.06,848.36 1597.21,848.143 1604.65,848.097C1636.82,847.895 1669.1,841.695 1699.79,829.147C1701.19,828.574 1718.4,821.304 1736.57,809.307C1805.4,763.879 1844.95,689.424 1847.83,615.558C1848.02,610.619 1848.02,606.497 1848.02,606.17C1848.02,604.582 1844.97,593.154 1844.67,592.031C1842.77,584.951 1844.26,584.063 1839.08,578.883C1833.6,573.409 1827.22,573.425 1826.09,573.428Z" style="fill:rgb(241,84,14);"/>
            </g>
        </g>
    </g>
</svg>
