<?xml version="1.0" encoding="UTF-8" standalone="no"?>
<!DOCTYPE svg PUBLIC "-//W3C//DTD SVG 1.1//EN" "http://www.w3.org/Graphics/SVG/1.1/DTD/svg11.dtd">
<svg width="100%" height="100%" viewBox="0 0 422 422" version="1.1" xmlns="http://www.w3.org/2000/svg" xmlns:xlink="http://www.w3.org/1999/xlink" xml:space="preserve" xmlns:serif="http://www.serif.com/" style="fill-rule:evenodd;clip-rule:evenodd;stroke-linejoin:round;stroke-miterlimit:2;">
    <g transform="matrix(1,0,0,1,-4044.41,-4207.14)">
        <g transform="matrix(1,0,0,1,3855.48,3674)">
            <g transform="matrix(0.727425,0,0,0.727425,-412.79,345.22)">
                <path d="M981.445,294.992C996.724,286.526 1068.88,245.76 1168.06,262.196C1247.75,275.404 1326.06,323.105 1371.74,405.964C1378.17,417.631 1402.55,462.419 1406.62,525.42C1406.77,527.724 1407.57,537.749 1406.98,557.782C1406.65,568.571 1405.21,613.309 1383.19,664.239C1326.39,795.62 1179.41,866.864 1037.31,827.483C996.272,816.109 957.639,795.081 927.151,769.513C926.94,769.336 904.926,751.241 886.351,727.272C878.539,717.193 871.346,706.582 864.834,695.538C864.533,695.028 859.001,685.484 853.016,672.365C846.554,658.202 839.27,639.695 833.805,614.55C830.263,598.258 823.867,563.553 829.297,518.048C836.656,456.394 861.116,414.709 869.13,401.465C905.45,341.433 952.825,311.533 973.471,299.755C974.116,299.387 974.061,299.302 981.445,294.992ZM1008.95,342.782C1004.61,345.309 1002.76,346.288 995.879,351.378C940.59,392.279 921.356,443.986 915.005,462.557C896.725,516.005 903.507,560.562 907.169,579.43C908.225,584.874 911.735,603.119 922.25,627.392C926.974,638.296 931.318,646.187 937.826,657.183C937.912,657.328 945.038,669.955 958.14,686.162C960.676,689.298 976.811,709.507 1002.2,727.774C1011.26,734.295 1069.65,777.032 1154.72,769.36C1226.23,762.912 1289.96,722.576 1327.44,663.269C1350.36,627.022 1357.02,594.575 1359.1,583.918C1359.85,580.077 1363.13,562.803 1363.29,546.267C1363.71,504.241 1352.97,473.944 1348.49,462.093C1313.76,370.189 1226.75,310.096 1129.48,309.693C1066.56,309.433 1023.06,334.436 1009.02,342.738L1008.95,342.782ZM1063.06,540.309C1040.64,519.284 1018.04,498.462 995.619,477.437C982.479,465.114 982.608,464.984 969.872,452.248C968.813,451.189 962.735,445.111 962.735,434.945C962.735,431.815 963.326,428.62 964.519,425.726C964.528,425.704 969.872,417.639 969.882,417.633C972.572,415.85 974.972,413.519 977.956,412.29C980.85,411.097 984.045,410.505 987.175,410.505C990.305,410.505 993.5,411.097 996.394,412.29C999.378,413.519 1002.05,415.5 1004.47,417.633C1009.7,422.244 1014.37,427.46 1019.27,432.432C1026.07,439.345 1032.85,446.285 1039.56,453.286C1056.34,470.78 1073.04,488.35 1089.74,505.918C1095.78,512.275 1101.85,518.605 1107.79,525.061C1108.38,525.711 1111.67,529.28 1112.91,534.851C1113.26,536.462 1115.46,546.316 1106.77,554.543C1067.78,591.473 1052,605.747 1047.16,610.12C1040.32,616.316 1033.43,622.476 1026.52,628.607C1018.7,635.548 1010.81,642.402 1002.98,649.338C1002.56,649.715 1002.18,650.142 1001.77,650.544C1001.18,651.14 997.758,654.56 992.038,654.56C990.277,654.56 988.48,654.227 986.851,653.556C986.06,653.23 981.496,651.35 979.291,645.996C977.154,640.809 978.975,636.389 979.291,635.622C979.982,633.945 981.234,632.556 982.293,631.083C982.552,630.724 982.945,630.481 983.233,630.144C988.383,624.105 993.454,617.999 998.604,611.96C1000.54,609.692 1014.53,593.283 1023.09,583.876C1036.36,569.301 1049.79,554.884 1063.06,540.309ZM1257.3,687.392C1257.3,688.235 1257.3,693.072 1253.26,697.116C1252.01,698.361 1250.51,699.397 1248.88,700.074C1247.21,700.771 1245.34,700.845 1243.55,701.16C1243.28,701.208 1243,701.126 1242.72,701.16C1237.75,701.789 1232.79,702.527 1227.82,703.149C1225.9,703.39 1212.91,705.015 1203.69,705.693C1198.22,706.095 1148.69,709.24 1139.91,709.73C1128.3,710.377 1116.68,710.96 1105.07,711.468C1093.09,711.991 1093.09,711.862 1081.1,711.862C1079.6,711.862 1071.01,711.862 1063.82,704.674C1061.61,702.461 1059.76,699.783 1058.56,696.894C1058.55,696.872 1056.63,687.39 1056.63,687.379C1057.27,684.216 1057.32,680.871 1058.56,677.891C1059.76,675.001 1061.61,672.324 1063.82,670.11C1066.03,667.897 1068.71,666.056 1071.6,664.853C1074.58,663.613 1077.88,663.24 1081.09,662.922C1084.42,662.593 1087.78,662.867 1091.12,662.922C1095.77,662.999 1100.42,663.114 1105.07,663.317C1116.68,663.825 1128.3,664.408 1139.91,665.055C1148.69,665.544 1198.22,668.69 1203.69,669.092C1212.91,669.77 1225.9,671.394 1227.82,671.635C1232.79,672.258 1237.75,672.995 1242.72,673.625C1242.99,673.659 1243.27,673.625 1243.54,673.625C1244.38,673.625 1249.21,673.625 1253.26,677.669C1257.3,681.713 1257.3,686.55 1257.3,687.392Z" style="fill:rgb(241,84,14);"/>
            </g>
        </g>
    </g>
</svg>
