<?xml version="1.0" encoding="UTF-8" standalone="no"?>
<!DOCTYPE svg PUBLIC "-//W3C//DTD SVG 1.1//EN" "http://www.w3.org/Graphics/SVG/1.1/DTD/svg11.dtd">
<svg width="100%" height="100%" viewBox="0 0 422 422" version="1.1" xmlns="http://www.w3.org/2000/svg" xmlns:xlink="http://www.w3.org/1999/xlink" xml:space="preserve" xmlns:serif="http://www.serif.com/" style="fill-rule:evenodd;clip-rule:evenodd;stroke-linejoin:round;stroke-miterlimit:2;">
    <path d="M112.205,26.669C123.32,20.51 175.805,-9.144 247.95,2.812C305.921,12.42 362.884,47.119 396.113,107.392C400.792,115.879 418.524,148.46 421.492,194.288C421.6,195.964 422.181,203.257 421.747,217.829C421.513,225.677 420.464,258.22 404.446,295.268C363.126,390.838 256.213,442.663 152.845,414.016C122.991,405.742 94.889,390.446 72.71,371.847C72.557,371.718 56.544,358.555 43.031,341.12C37.349,333.788 32.116,326.07 27.379,318.036C27.161,317.665 23.137,310.722 18.783,301.179C14.083,290.877 8.784,277.414 4.808,259.123C2.232,247.272 -2.421,222.026 1.529,188.925C6.882,144.076 24.675,113.754 30.504,104.12C56.925,60.451 91.386,38.701 106.405,30.134C106.874,29.866 106.834,29.804 112.205,26.669ZM132.21,61.432C129.059,63.27 127.71,63.983 122.705,67.685C82.486,97.438 68.495,135.051 63.875,148.56C50.578,187.439 55.512,219.851 58.175,233.576C58.944,237.536 61.496,250.808 69.146,268.465C72.582,276.397 75.742,282.137 80.476,290.135C80.538,290.241 85.722,299.426 95.253,311.216C97.097,313.497 108.835,328.197 127.301,341.485C133.893,346.228 176.365,377.316 238.25,371.736C290.266,367.045 336.626,337.704 363.895,294.563C380.561,268.196 385.406,244.593 386.922,236.841C387.468,234.047 389.851,221.481 389.97,209.453C390.273,178.882 382.461,156.843 379.203,148.222C353.938,81.369 290.646,37.655 219.893,37.363C174.118,37.173 142.476,55.362 132.265,61.4L132.21,61.432ZM120.164,209.133C124.234,215.761 128.48,222.281 132.55,228.909C145.233,249.567 171.123,294.793 174.421,300.554C175.629,302.664 175.742,302.648 176.144,305.047C176.359,306.331 176.339,307.673 176.1,308.954C175.944,309.79 174.891,315.441 168.716,316.604C164.84,317.334 161.8,315.485 161.283,315.17C159.151,313.874 159.226,313.755 157.689,311.791C153.863,306.904 129.294,275.518 110.261,250.402C108.317,247.837 93.576,228.385 86.227,218.141C85.041,216.487 85.003,216.498 84.273,214.596C83.447,212.446 83.376,212.452 83.157,210.164C82.877,207.233 83.498,204.831 83.614,204.382C84.19,202.155 84.244,202.164 85.404,200.182C86.05,199.079 86.693,197.982 94.784,187.245C109.017,168.362 122.665,152.054 125.171,149.06C140.227,131.07 140.276,131.116 155.662,113.406C157.243,111.586 157.196,111.492 159.302,110.321C159.83,110.027 162.945,108.295 166.746,109.083C172.704,110.319 173.636,115.931 173.773,116.752C173.987,118.038 173.989,119.378 173.769,120.664C173.371,122.99 173.288,122.982 172.141,125.045C162.796,141.867 162.859,141.899 153.194,158.542C146.811,169.534 141.026,178.667 139.931,180.395C137.598,184.077 135.284,187.775 132.813,191.366C128.693,197.356 124.284,203.143 120.164,209.133ZM200.894,287.101C200.21,286.917 196.283,285.865 193.879,281.702C193.139,280.42 192.626,278.972 192.43,277.504C192.228,275.993 192.576,274.457 192.709,272.938C192.728,272.712 192.853,272.507 192.884,272.283C193.209,269.923 193.44,267.55 193.776,265.192C194.372,261.016 198.602,231.355 202.546,213.195C203.21,210.137 203.92,207.087 204.716,204.061C207.417,193.798 212.265,180.748 213.007,178.751C213.709,176.861 216.382,169.666 222.359,155.352C222.744,154.43 223.723,152.085 227.289,143.88C227.581,143.209 229.213,139.454 233.377,137.05C234.616,136.335 235.99,135.792 237.402,135.555C237.421,135.552 241.464,135.696 241.472,135.7C242.665,136.334 244.007,136.745 245.049,137.604C248.419,140.384 249.267,144.473 249.409,145.156C249.939,147.708 249.9,147.73 249.594,150.317C247.931,164.384 248,164.391 245.976,178.412C245.668,180.545 243.925,192.613 241.15,204.912C240.518,207.711 239.858,210.506 239.103,213.275C235.083,228.015 226.178,250.935 224.924,254.162C222.649,260.015 220.352,265.859 218.012,271.686C217.124,273.896 216.138,276.067 215.239,278.273C215.155,278.479 215.124,278.703 215.067,278.918C214.883,279.602 213.831,283.529 209.668,285.932C205.505,288.336 201.578,287.284 200.894,287.101ZM320.26,209.462C315.954,202.784 311.436,196.245 307.129,189.567C300.707,179.608 290.393,162.517 288.964,160.149C287.249,157.307 275.756,138.264 267.704,124.526C267.386,123.984 265.591,120.922 266.247,116.8C266.38,115.967 267.281,110.303 273.355,109.01C277.192,108.193 280.297,109.951 280.825,110.25C282.969,111.464 282.909,111.572 284.498,113.457C288.146,117.784 311.303,145.254 329.659,167.906C344.695,186.461 352.479,196.584 354.421,199.111C354.853,199.672 355.209,200.287 355.596,200.879C357.225,203.367 357.641,206.482 357.71,206.995C357.771,207.454 358.092,209.847 357.492,212.78C357.469,212.895 356.66,215.517 356.633,215.57C356.185,216.433 355.756,217.31 355.233,218.131C346.058,232.534 331.182,253.055 329.018,256.04C326.803,259.095 318.345,270.764 300.759,293.813C299.627,295.297 296.738,299.084 286.491,312.267C286.107,312.761 283.945,315.543 279.881,316.433C279.062,316.612 273.465,317.837 270.086,312.712C267.959,309.485 268.398,305.939 268.472,305.34C268.764,302.984 268.857,302.991 269.922,300.87C279.797,281.189 279.722,281.155 289.912,261.632C290.915,259.711 296.222,249.541 302.861,237.84C305.078,233.933 307.283,230.016 309.631,226.186C313.084,220.555 316.808,215.093 320.26,209.462Z" style="fill:rgb(31,20,25);"/>
</svg>
