<?xml version="1.0" encoding="UTF-8" standalone="no"?>
<!DOCTYPE svg PUBLIC "-//W3C//DTD SVG 1.1//EN" "http://www.w3.org/Graphics/SVG/1.1/DTD/svg11.dtd">
<svg width="100%" height="100%" viewBox="0 0 422 422" version="1.1" xmlns="http://www.w3.org/2000/svg" xmlns:xlink="http://www.w3.org/1999/xlink" xml:space="preserve" xmlns:serif="http://www.serif.com/" style="fill-rule:evenodd;clip-rule:evenodd;stroke-linejoin:round;stroke-miterlimit:2;">
    <path d="M112.205,26.669C123.32,20.51 175.805,-9.144 247.95,2.812C305.921,12.42 362.884,47.119 396.113,107.392C400.792,115.879 418.524,148.46 421.492,194.288C421.6,195.964 422.181,203.257 421.747,217.829C421.513,225.677 420.464,258.22 404.446,295.268C363.126,390.838 256.213,442.663 152.845,414.016C122.991,405.742 94.889,390.446 72.71,371.847C72.557,371.718 56.544,358.555 43.031,341.12C37.349,333.788 32.116,326.07 27.379,318.036C27.161,317.665 23.137,310.722 18.783,301.179C14.083,290.877 8.784,277.414 4.808,259.123C2.232,247.272 -2.421,222.026 1.529,188.925C6.882,144.076 24.675,113.754 30.504,104.12C56.925,60.451 91.386,38.701 106.405,30.134C106.874,29.866 106.834,29.804 112.205,26.669ZM132.21,61.432C129.059,63.27 127.71,63.983 122.705,67.685C82.486,97.438 68.495,135.051 63.875,148.56C50.578,187.439 55.512,219.851 58.175,233.576C58.944,237.536 61.496,250.808 69.146,268.465C72.582,276.397 75.742,282.137 80.476,290.135C80.538,290.241 85.722,299.426 95.253,311.216C97.097,313.497 108.835,328.197 127.301,341.485C133.893,346.228 176.365,377.316 238.25,371.736C290.266,367.045 336.626,337.704 363.895,294.563C380.561,268.196 385.406,244.593 386.922,236.841C387.468,234.047 389.851,221.481 389.97,209.453C390.273,178.882 382.461,156.843 379.203,148.222C353.938,81.369 290.646,37.655 219.893,37.363C174.118,37.173 142.476,55.362 132.265,61.4L132.21,61.432ZM308.583,241.863C305.588,244.843 302.061,244.843 301.442,244.843C300.165,244.843 298.86,244.596 297.684,244.098C297.244,243.912 297.632,243.267 292.574,241.018C290.641,240.159 289.016,239.524 289.014,239.523C288.154,239.009 275.951,228.821 257.456,223.168C235.165,216.354 211.115,217.956 189.806,227.606C187.488,228.656 174.102,233.678 160.66,246.951C157.91,249.667 157.932,249.784 154.355,251.255C152.248,252.121 149.924,252.551 147.646,252.551C145.37,252.551 143.047,252.121 140.942,251.255C140.926,251.248 135.066,247.367 135.061,247.36C133.764,245.403 132.069,243.657 131.174,241.487C130.307,239.382 129.876,237.058 129.876,234.781C129.876,232.504 130.307,230.18 131.174,228.074C132.846,224.018 133.086,224.112 136.229,221.048C147.799,209.767 161.144,201.024 175.522,194.991C176.528,194.569 185.034,191.19 195.325,189.112C235.428,181.017 275.174,193.523 301.625,218.253C303.403,219.916 304.828,221.361 304.942,221.475C305.463,221.999 308.295,227.182 308.571,227.687C308.576,227.695 308.585,227.699 308.59,227.706C309.305,228.82 310.239,229.821 310.731,231.05C310.956,231.61 312.256,234.853 310.732,238.597C310.614,238.886 309.959,240.494 308.583,241.863ZM354.458,180.441C353.998,180.903 351.355,183.554 346.928,183.561C345.565,183.563 344.173,183.308 342.912,182.79C340.457,181.784 340.543,181.603 338.655,179.736C338.651,179.732 331.556,173.661 321.142,167.328C320.48,166.925 314.856,163.567 310.633,161.318C310.361,161.173 302.077,156.536 288.612,151.651C285.985,150.698 277.717,147.849 269.188,145.842C262.023,144.155 246.817,140.381 223.749,141.29C218.402,141.5 198.75,142.287 174.765,151.414C147.352,161.844 130.054,177.677 122.181,185.524C121.41,186.293 116.981,190.708 109.587,190.696C107.31,190.693 104.986,190.259 102.882,189.388C102.866,189.381 97.006,185.484 97.001,185.477C95.708,183.518 94.015,181.77 93.124,179.598C92.259,177.492 91.833,175.167 91.836,172.89C91.84,170.613 92.274,168.289 93.145,166.186C94.85,162.068 95.124,162.188 98.304,159.068C138.884,119.253 183.687,111.151 194.502,109.247C219.991,104.759 239.158,106.838 244.873,107.455C257.928,108.866 268.414,111.402 275.37,113.367C277.082,113.85 285.603,116.492 292.694,119.54C301.108,123.157 309.717,127.491 320.224,134.584C321.172,135.224 327.04,139.185 331.748,143.048C343.051,152.325 351.666,162.322 353.238,164.148C353.706,164.69 354.402,165.319 354.441,165.378C355.219,166.548 356.234,167.59 356.771,168.888C357.017,169.481 358.431,172.9 356.784,176.917C355.972,178.896 355.968,178.926 354.458,180.441ZM209.883,296.09C206.259,292.838 202.65,289.568 199.06,286.278C194.714,282.296 194.759,282.252 190.591,278.083C190.07,277.563 187.082,274.574 187.082,269.577C187.082,268.038 187.373,266.467 187.959,265.045C187.964,265.034 190.591,261.069 190.596,261.066C191.918,260.189 193.098,259.044 194.565,258.439C195.988,257.853 197.559,257.562 199.097,257.562C200.636,257.562 202.207,257.853 203.63,258.439C205.096,259.044 206.372,260.06 207.599,261.066C208.871,262.109 209.944,263.373 211.088,264.555C212.678,266.198 214.254,267.854 215.798,269.54C218.782,272.796 221.75,276.068 224.703,279.353C227.656,276.068 230.624,272.796 233.608,269.54C235.152,267.854 236.729,266.198 238.318,264.555C239.462,263.373 240.536,262.109 241.807,261.066C243.034,260.06 244.31,259.044 245.777,258.439C247.199,257.853 248.77,257.562 250.309,257.562C251.848,257.562 253.419,257.853 254.841,258.439C256.308,259.044 257.488,260.189 258.811,261.066C258.815,261.069 261.443,265.034 261.447,265.045C262.033,266.467 262.324,268.038 262.324,269.577C262.324,274.574 259.336,277.563 258.815,278.083C254.647,282.252 254.692,282.296 250.346,286.278C246.756,289.568 243.147,292.838 239.523,296.09C243.603,300.724 247.285,304.916 248.075,305.832C251.044,309.272 254.993,314.35 255.579,315.104C257.091,317.049 258.558,319.028 260.068,320.975C260.149,321.08 260.256,321.163 260.35,321.258C260.643,321.55 262.324,323.232 262.324,326.044C262.324,328.855 260.643,330.537 260.35,330.83C260.057,331.123 258.376,332.804 255.564,332.804C254.698,332.804 253.814,332.64 253.014,332.31C252.189,331.971 251.513,331.346 250.783,330.834C250.672,330.757 250.603,330.63 250.496,330.547C248.549,329.038 246.569,327.571 244.624,326.059C243.871,325.473 238.792,321.524 235.352,318.555C234.376,317.713 229.687,313.592 224.703,309.204C219.72,313.592 215.03,317.713 214.054,318.555C210.614,321.524 205.536,325.473 204.782,326.059C202.837,327.571 200.858,329.038 198.911,330.547C198.804,330.63 198.734,330.757 198.624,330.834C197.893,331.346 197.217,331.971 196.392,332.31C195.592,332.64 194.708,332.804 193.842,332.804C191.031,332.804 189.349,331.123 189.056,330.83C188.763,330.537 187.082,328.855 187.082,326.044C187.082,323.232 188.763,321.55 189.056,321.258C189.15,321.163 189.257,321.08 189.339,320.975C190.848,319.028 192.315,317.049 193.827,315.104C194.413,314.35 198.362,309.272 201.331,305.832C202.122,304.916 205.803,300.724 209.883,296.09Z" style="fill:rgb(31,20,25);"/>
</svg>
