<?xml version="1.0" encoding="UTF-8" standalone="no"?><!DOCTYPE svg PUBLIC "-//W3C//DTD SVG 1.1//EN" "http://www.w3.org/Graphics/SVG/1.1/DTD/svg11.dtd"><svg width="100%" height="100%" viewBox="0 0 500 84" version="1.1" xmlns="http://www.w3.org/2000/svg" xmlns:xlink="http://www.w3.org/1999/xlink" xml:space="preserve" xmlns:serif="http://www.serif.com/" style="fill-rule:evenodd;clip-rule:evenodd;stroke-linejoin:round;stroke-miterlimit:2;"><g><g><path d="M213.208,31.2l0.011,-0.021c0.255,1.388 0.378,2.895 0.378,4.521l0,15.542c0,0.748 0.071,1.326 0.196,1.774l-0.024,0.024c0.996,3.445 5.279,-1.043 5.279,3.396c0,2.081 -4.436,5.689 -9.722,5.309c-0.054,0.002 -0.109,0.002 -0.168,0.002c-0.83,0 -1.732,-0.179 -2.612,-0.505l-0.002,0c-2.119,-0.795 -4.111,-2.432 -4.692,-4.436c-3.546,3.2 -8.724,5.423 -13.608,5.668l-0.022,0.022c-0.295,0.014 -0.59,0.021 -0.882,0.021c-5.597,-0 -9.911,-4.038 -9.911,-9.727c-0,-0.083 -0,-0.165 0.002,-0.248l0.054,-0.04c0.152,-10.218 8.51,-14.005 17.314,-15.199l0.007,-0.01c2.582,-0.347 5.201,-0.472 7.662,-0.472l0,-5.139c0,-0.954 -0.144,-1.839 -0.406,-2.643l0.038,-0.05c-1.168,-3.499 -4.597,-5.486 -8.283,-5.198c-2.02,0.158 -5.375,1.781 -2.845,4.313c2.529,2.53 -2.532,7.103 -7.766,5.819l-0.01,-0.002c-1.43,-0.352 -2.456,-1.548 -2.456,-3.934c-0,-5.083 5.019,-7.671 9.939,-8.894c2.933,-0.729 5.831,-0.974 7.608,-0.974c3.686,-0 6.661,0.672 8.974,1.965l-0.012,0.024c3.257,1.836 5.194,4.915 5.959,9.092c-0.236,0.385 -0.46,0.76 -0.633,1.06c-0.127,0.219 -0.248,0.425 -0.363,0.618c0.12,-0.201 0.245,-0.411 0.375,-0.637c0.17,-0.297 0.389,-0.663 0.621,-1.041Zm-10.728,13.72l-0.014,0.016c-0.024,-0.752 -0.172,-1.472 -0.606,-2.088l-0.005,-0.009l-0.021,-0.026l-0.005,-0.007c-0.835,-1.173 -2.296,-1.553 -3.733,-1.589c-3.776,-0.092 -8.88,0.541 -10.279,5.095c-0.541,1.751 -0.505,4.123 0.75,6.06l-0.002,0l0.014,0.021l0.016,0.022c1.414,1.826 3.639,2.725 5.47,2.716c0.312,-0.003 0.616,-0.024 0.913,-0.064l0.017,-0.021c4.62,-0.616 7.157,-5.6 7.37,-8.054c0.056,-0.682 0.136,-1.39 0.115,-2.072Zm23.912,-15.969c-1.267,-3.492 -5.116,0.8 -5.116,-3.716c-0,-2.167 4.103,-5.992 9.675,-5.241c2.003,0.233 3.483,1.121 4.568,2.251c1.286,1.338 2.025,3.018 2.443,4.358c0.413,1.331 0.509,2.327 0.509,2.327l0.184,0c1.284,-4.59 7.615,-8.811 13.765,-8.811c1.803,-0 3.459,0.321 4.963,0.894c3.711,1.421 6.498,4.401 8.273,8.007c1.498,3.046 2.272,6.536 2.272,9.913c0,1.824 -0.148,3.58 -0.431,5.248c-1.877,11.004 -9.687,18.336 -20.125,18.336c-0.344,-0 -0.686,-0.01 -1.028,-0.026c-2.577,-0.139 -5.119,-0.821 -7.873,-2.36l0,5.508l0.022,-0.01l-0,2.941c-0,0.457 0.014,0.873 0.044,1.246c0.527,6.645 5.468,0.448 5.468,5.566c0,2.169 -4.104,5.994 -9.673,5.244c-1.906,-0.225 -3.339,-0.899 -4.412,-1.794c-2.717,-2.263 -3.13,-5.918 -3.108,-7.143c0.007,-0.524 -0.043,-1.055 -0.022,-1.569l0,-38.07c0,-1.421 -0.151,-2.412 -0.398,-3.099Zm24.268,-1.095c-0.692,-0.217 -1.459,-0.335 -2.306,-0.335c-6.331,0 -9.732,7.58 -9.732,13.914c0,1.123 -0.103,3.164 0.052,5.432c0.224,3.218 0.968,6.89 3.273,9.033c1.206,1.123 2.841,1.826 5.053,1.826c6.196,0 8.849,-6.432 9.62,-12.358c0.177,-1.357 0.255,-2.687 0.255,-3.91c0,-5.054 -1.125,-12.009 -6.215,-13.602Zm-138.575,15.849c-0.64,-2.639 -0.975,-5.433 -0.975,-8.337c-0,-5.68 1.607,-10.921 4.344,-15.471c3.169,-5.267 7.856,-9.604 13.326,-12.618c5.416,-2.985 11.596,-4.667 17.828,-4.667c0.661,-0 1.317,0.03 1.963,0.092c5.744,0.538 10.803,3.341 14.152,6.161l0.012,-0.016c0.795,0.667 1.491,1.338 2.079,1.979l0.018,0.01c0.623,0.682 1.121,1.331 1.478,1.909c2.187,3.554 0.969,8.257 -2.62,10.111l-0.019,0.003l-0.049,0.04c-0.548,0.276 -1.149,0.486 -1.801,0.616c-2.855,0.571 -8.363,0.04 -11.242,-6.683c-0.035,-0.085 -0.075,-0.172 -0.113,-0.257l-0.009,0.007c-1.562,-3.419 -4.958,-6.886 -9.232,-7.651c-0.566,-0.101 -1.149,-0.155 -1.744,-0.155c-7.128,-0 -11.315,6.496 -12.945,13.745c-0.531,2.367 -0.791,4.817 -0.791,7.143c0,4.588 1.164,9.145 3.332,13.109c1.114,2.041 2.494,3.924 4.118,5.574c1.966,1.996 4.285,3.653 6.926,4.835c2.846,1.274 6.065,1.999 9.604,1.999c4.29,-0 7.785,-1.124 10.624,-2.523c4.686,-2.308 7.575,-5.368 9.283,-5.368c0.961,-0 2.056,0.958 2.056,1.781c-0,5.836 -12.012,14.263 -25.144,16.367c-1.975,0.317 -3.976,0.489 -5.968,0.489c-4.15,-0 -7.978,-0.732 -11.402,-2.079c-3.051,-1.196 -5.784,-2.881 -8.144,-4.965c-1.769,-1.562 -3.329,-3.351 -4.658,-5.328c-1.956,-2.912 -3.41,-6.235 -4.287,-9.852Zm162.156,-5.102c1.692,-9.619 10.328,-16.773 19.893,-18.239c0.554,-0.085 1.111,-0.151 1.67,-0.196c0.642,-0.054 1.286,-0.08 1.931,-0.08c2.645,0 5.118,0.76 7.213,1.822c2.924,1.484 5.109,3.563 5.992,4.998c1.699,2.758 0.337,6.546 -3.007,7.214c-1.911,0.382 -5.604,0.026 -7.534,-4.479c-0.137,-0.321 -0.298,-0.644 -0.482,-0.961c-1.342,-2.324 -3.889,-4.46 -6.959,-4.46c-0.835,0 -1.602,0.13 -2.305,0.371c-1.39,0.474 -2.534,1.378 -3.455,2.56c-2.157,2.773 -3.084,7.068 -3.084,10.926c-0,2.596 0.555,5.177 1.602,7.518c2.049,4.573 5.973,8.229 11.292,9.279c1.01,0.2 2.072,0.307 3.178,0.307c2.379,-0 4.359,-0.503 6.013,-1.192c3.646,-1.52 5.706,-3.955 6.968,-3.955c0.645,-0 1.379,0.642 1.379,1.194c-0,3.752 -7.408,9.102 -15.78,10.777c-1.669,0.335 -3.377,0.522 -5.074,0.522c-1.305,-0 -2.565,-0.109 -3.771,-0.317c-5.104,-0.882 -9.255,-3.558 -12.044,-7.39c-2.522,-3.469 -3.936,-7.887 -3.936,-12.779c0,-1.177 0.104,-2.324 0.3,-3.44Zm46.834,19.055c-0.805,-1.416 -1.26,-3.089 -1.26,-4.934c-0,-10.683 8.833,-14.461 17.948,-15.57c2.395,-0.293 4.812,-0.399 7.091,-0.399l0,-5.139c0,-0.857 -0.115,-1.659 -0.328,-2.398c-1.069,-3.681 -4.587,-5.791 -8.374,-5.493c-0.208,0.016 -0.43,0.047 -0.656,0.092c-1.992,0.408 -4.463,1.949 -2.19,4.219c0.054,0.056 0.106,0.111 0.153,0.167c2.063,2.445 -2.381,6.532 -7.251,5.787c-0.225,-0.034 -0.451,-0.081 -0.678,-0.135c-1.432,-0.354 -2.459,-1.548 -2.459,-3.934c0,-7.296 10.339,-9.448 15.884,-9.809c0.623,-0.04 1.185,-0.059 1.666,-0.059c3.526,-0 6.4,0.613 8.667,1.798c4.578,2.393 6.686,7.112 6.686,13.802l-0,15.544c-0,1.746 0.384,2.579 0.948,2.957c1.57,1.043 4.533,-1.442 4.533,2.249c0,2.081 -4.436,5.691 -9.719,5.311c-0.055,0.003 -0.111,0.003 -0.168,0.003c-0.113,-0 -0.227,-0.005 -0.342,-0.01c-2.789,-0.16 -6.206,-2.213 -6.999,-4.946c-3.231,2.915 -7.813,5.019 -12.299,5.555c-0.739,0.087 -1.475,0.135 -2.202,0.135c-3.78,-0 -6.976,-1.843 -8.651,-4.793Zm13.21,-15.638c-1.85,0.729 -3.403,2.015 -4.082,4.226c-0.161,0.519 -0.269,1.093 -0.312,1.694c-0.099,1.426 0.179,3.002 1.062,4.366l-0.002,0l0.016,0.021l0.014,0.022l0.003,-0c1.411,1.826 3.636,2.723 5.467,2.716c5.201,-0.029 8.061,-5.506 8.288,-8.12c0.123,-1.433 0.335,-2.988 -0.493,-4.165l-0.024,-0.036l-0.007,-0.007c-0.833,-1.17 -2.294,-1.55 -3.733,-1.586c-1.942,-0.047 -4.236,0.097 -6.197,0.869Zm32.489,-14.86c-1.571,-0.54 -2.69,-1.559 -2.874,-3.367c-0.127,-1.241 1.003,-2.393 1.937,-2.674c1.11,-0.332 2.256,-0.462 3.238,-0.398l0,-0.824l-0.005,-0l0,-3.828c0,0 0.01,0.005 0.01,0c-0,-3.478 4.129,-8.466 9.097,-9.113c0.651,-0.08 1.305,0.125 1.793,0.562c0.489,0.439 0.765,1.066 0.753,1.725c0.005,0.771 0.009,1.677 0.014,2.612c0.019,3.063 0.045,6.43 0.045,6.43c-0.014,0.281 -0.021,0.583 -0.021,0.906l-0,0.706l0.004,-0l0,1.744l0.015,0.002c1.46,0.144 2.869,-0.236 4.37,-0.484c0.738,-0.122 1.498,-0.212 2.296,-0.193c0.701,0.016 1.399,0.639 1.328,1.399c-0.136,1.463 -3.015,4.279 -7.596,4.833c-0.153,0.748 -0.28,1.348 -0.413,1.867l0,11.133l-0.009,-0.005l0.021,10.56c0,2.334 0.449,3.573 1.138,4.177c2.232,1.956 6.975,-2.808 6.975,1.326c0,2.167 -3.426,6.296 -10.845,6.296c-1.246,0 -2.322,-0.127 -3.247,-0.349c-5.527,-1.329 -5.742,-6.091 -5.744,-7.948c-0,-0.146 0.002,-0.274 0.002,-0.382l0.007,-9.581l0.012,-16.669c-0.828,-0.078 -1.607,-0.224 -2.301,-0.463Zm-203.084,-4.261l-0.045,0.023l0.026,-0.021l0.019,-0.002Z" style="fill:#f1540d;fill-rule:nonzero;"/></g></g></svg>