<?xml version="1.0" encoding="UTF-8" standalone="no"?>
<!DOCTYPE svg PUBLIC "-//W3C//DTD SVG 1.1//EN" "http://www.w3.org/Graphics/SVG/1.1/DTD/svg11.dtd">
<svg width="100%" height="100%" viewBox="0 0 422 422" version="1.1" xmlns="http://www.w3.org/2000/svg" xmlns:xlink="http://www.w3.org/1999/xlink" xml:space="preserve" xmlns:serif="http://www.serif.com/" style="fill-rule:evenodd;clip-rule:evenodd;stroke-linejoin:round;stroke-miterlimit:2;">
    <path d="M112.205,26.669C123.32,20.51 175.805,-9.144 247.95,2.812C305.921,12.42 362.884,47.119 396.113,107.392C400.792,115.879 418.524,148.46 421.492,194.288C421.6,195.964 422.181,203.257 421.747,217.829C421.513,225.677 420.464,258.22 404.446,295.268C363.126,390.838 256.213,442.663 152.845,414.016C122.991,405.742 94.889,390.446 72.71,371.847C72.557,371.718 56.544,358.555 43.031,341.12C37.349,333.788 32.116,326.07 27.379,318.036C27.161,317.665 23.137,310.722 18.783,301.179C14.083,290.877 8.784,277.414 4.808,259.123C2.232,247.272 -2.421,222.026 1.529,188.925C6.882,144.076 24.675,113.754 30.504,104.12C56.925,60.451 91.386,38.701 106.405,30.134C106.874,29.866 106.834,29.804 112.205,26.669ZM132.21,61.432C129.059,63.27 127.71,63.983 122.705,67.685C82.486,97.438 68.495,135.051 63.875,148.56C50.578,187.439 55.512,219.851 58.175,233.576C58.944,237.536 61.496,250.808 69.146,268.465C72.582,276.397 75.742,282.137 80.476,290.135C80.538,290.241 85.722,299.426 95.253,311.216C97.097,313.497 108.835,328.197 127.301,341.485C133.893,346.228 176.365,377.316 238.25,371.736C290.266,367.045 336.626,337.704 363.895,294.563C380.561,268.196 385.406,244.593 386.922,236.841C387.468,234.047 389.851,221.481 389.97,209.453C390.273,178.882 382.461,156.843 379.203,148.222C353.938,81.369 290.646,37.655 219.893,37.363C174.118,37.173 142.476,55.362 132.265,61.4L132.21,61.432ZM171.574,205.118C155.267,189.824 138.823,174.678 122.516,159.384C112.958,150.419 113.052,150.325 103.787,141.061C103.017,140.291 98.595,135.869 98.595,128.474C98.595,126.197 99.025,123.873 99.893,121.768C99.9,121.752 103.787,115.885 103.794,115.881C105.751,114.584 107.497,112.888 109.667,111.994C111.772,111.126 114.097,110.696 116.374,110.696C118.65,110.696 120.975,111.126 123.08,111.994C125.25,112.888 127.191,114.329 128.953,115.881C132.762,119.235 136.158,123.029 139.718,126.646C144.668,131.675 149.598,136.723 154.482,141.816C166.686,154.542 178.833,167.322 190.98,180.102C195.375,184.726 199.791,189.331 204.109,194.026C204.544,194.5 206.931,197.095 207.833,201.148C208.094,202.32 209.689,209.488 203.371,215.472C175.01,242.336 163.529,252.719 160.012,255.901C155.029,260.408 150.022,264.888 144.997,269.349C139.308,274.398 133.563,279.383 127.871,284.428C127.561,284.703 127.286,285.014 126.993,285.306C126.56,285.739 124.072,288.227 119.911,288.227C118.63,288.227 117.323,287.985 116.138,287.497C115.563,287.26 112.242,285.892 110.638,281.998C109.084,278.225 110.409,275.01 110.639,274.451C111.141,273.231 112.052,272.221 112.822,271.15C113.011,270.888 113.297,270.712 113.506,270.466C117.252,266.074 120.941,261.632 124.687,257.239C126.094,255.589 136.271,243.653 142.499,236.81C152.149,226.208 161.924,215.72 171.574,205.118ZM312.872,312.11C312.872,312.723 312.872,316.242 309.93,319.183C309.024,320.089 307.928,320.843 306.745,321.335C305.527,321.842 304.166,321.896 302.866,322.125C302.669,322.16 302.464,322.1 302.266,322.125C298.649,322.583 295.043,323.12 291.426,323.572C290.025,323.748 280.58,324.929 273.874,325.423C269.894,325.715 233.863,328.003 227.474,328.359C219.029,328.83 210.582,329.254 202.132,329.623C193.419,330.004 193.419,329.91 184.697,329.91C183.608,329.91 177.355,329.91 172.126,324.682C170.516,323.072 169.177,321.124 168.302,319.022C168.295,319.006 166.895,312.109 166.897,312.1C167.364,309.8 167.399,307.366 168.302,305.199C169.177,303.097 170.516,301.149 172.126,299.539C173.736,297.929 175.684,296.59 177.786,295.715C179.953,294.813 182.351,294.541 184.687,294.31C187.109,294.071 189.555,294.27 191.988,294.31C195.37,294.366 198.753,294.45 202.132,294.597C210.582,294.967 219.029,295.391 227.474,295.862C233.863,296.218 269.894,298.505 273.874,298.798C280.58,299.291 290.025,300.473 291.426,300.648C295.043,301.101 298.649,301.638 302.266,302.095C302.461,302.12 302.66,302.095 302.856,302.095C303.469,302.095 306.988,302.095 309.93,305.037C312.872,307.979 312.872,311.498 312.872,312.11Z" style="fill:rgb(31,20,25);"/>
</svg>
