<?xml version="1.0" encoding="UTF-8" standalone="no"?>
<!DOCTYPE svg PUBLIC "-//W3C//DTD SVG 1.1//EN" "http://www.w3.org/Graphics/SVG/1.1/DTD/svg11.dtd">
<svg width="100%" height="100%" viewBox="0 0 422 422" version="1.1" xmlns="http://www.w3.org/2000/svg" xmlns:xlink="http://www.w3.org/1999/xlink" xml:space="preserve" xmlns:serif="http://www.serif.com/" style="fill-rule:evenodd;clip-rule:evenodd;stroke-linejoin:round;stroke-miterlimit:2;">
    <path d="M112.205,26.669C123.32,20.51 175.805,-9.144 247.95,2.812C305.921,12.42 362.884,47.119 396.113,107.392C400.792,115.879 418.524,148.46 421.492,194.288C421.6,195.964 422.181,203.257 421.747,217.829C421.513,225.677 420.464,258.22 404.446,295.268C363.126,390.838 256.213,442.663 152.845,414.016C122.991,405.742 94.889,390.446 72.71,371.847C72.557,371.718 56.544,358.555 43.031,341.12C37.349,333.788 32.116,326.07 27.379,318.036C27.161,317.665 23.137,310.722 18.783,301.179C14.083,290.877 8.784,277.414 4.808,259.123C2.232,247.272 -2.421,222.026 1.529,188.925C6.882,144.076 24.675,113.754 30.504,104.12C56.925,60.451 91.386,38.701 106.405,30.134C106.874,29.866 106.834,29.804 112.205,26.669ZM92.87,308.208C93.631,309.188 94.426,310.192 95.253,311.216C97.097,313.497 108.835,328.197 127.301,341.485C133.893,346.228 176.365,377.316 238.25,371.736C290.266,367.045 336.626,337.704 363.895,294.563C380.561,268.196 385.406,244.593 386.922,236.841C387.468,234.047 389.851,221.481 389.97,209.453C390.273,178.882 382.461,156.843 379.203,148.222C353.938,81.369 290.646,37.655 219.893,37.363C174.118,37.173 142.476,55.362 132.265,61.4L132.21,61.432C129.059,63.27 127.71,63.983 122.705,67.685C82.486,97.438 68.495,135.051 63.875,148.56C50.578,187.439 55.512,219.851 58.175,233.576C58.878,237.197 61.073,248.607 67.294,264.036L101.566,128.122C103.543,120.368 109.564,117.229 110.598,116.69C117.677,113 124.051,115.419 125.141,115.832C125.627,116.017 128.577,117.136 130.674,119.24C131.252,119.82 131.887,120.351 132.409,120.983C133.045,121.753 133.775,122.499 134.136,123.431C145.102,151.751 155.778,180.183 166.542,208.581C175.677,181.501 184.784,154.411 193.991,127.355C194.276,126.518 195.876,121.814 200.933,118.748C205.914,115.727 210.795,116.454 211.661,116.583C213.802,116.902 213.79,116.976 215.772,117.839C217.599,118.634 217.623,118.612 219.18,119.856C219.85,120.39 223.617,123.399 224.785,128.978C235.539,180.351 235.576,180.342 245.848,231.812C251.025,257.754 255.975,283.74 261.093,309.693C261.331,310.898 261.642,312.088 261.917,313.285C262.062,313.921 262.899,317.57 260.547,321.32C259.823,322.475 258.866,323.517 257.756,324.309C257.217,324.693 254.108,326.913 249.69,326.158C245.41,325.426 243.261,322.415 242.887,321.892C242.072,320.75 241.604,319.384 241.146,318.057C240.744,316.893 240.632,315.647 240.32,314.455L207.914,190.811C199.922,215.671 191.941,240.534 183.888,265.374C182.547,269.51 179.936,272.034 179.453,272.5C174.027,277.744 167.626,277.389 166.524,277.328C158.985,276.909 154.852,271.961 154.141,271.11C153.532,270.381 152.846,269.664 152.499,268.78C142.339,242.905 132.405,216.942 122.426,190.997L92.87,308.208ZM304.502,303.369C299.087,298.319 293.722,293.216 288.294,288.179C283.073,283.335 277.767,278.582 272.554,273.729C272.107,273.313 271.689,272.861 271.318,272.377C270.552,271.379 270.563,271.37 270.071,270.211C269.487,268.838 269.415,268.853 269.196,267.376C269.092,266.675 268.482,262.555 271.667,258.867C274.154,255.987 277.338,255.438 277.902,255.34C279.539,255.058 279.551,255.21 284.654,255.189C289.847,255.168 295.04,255.143 300.232,255.117L297.247,173.839C296.543,153.661 296.598,153.662 296.254,133.474C296.131,126.255 300.713,121.673 301.483,120.903C303.093,119.293 305.041,117.954 307.143,117.079C307.159,117.072 314.056,115.673 314.064,115.674C316.365,116.141 318.798,116.177 320.966,117.079C323.068,117.954 325.015,119.293 326.625,120.903C328.235,122.513 329.575,124.461 330.45,126.563C331.352,128.73 331.745,131.119 331.854,133.464C332.118,139.164 331.703,144.876 331.563,150.58C331.372,158.334 331.131,166.087 330.861,173.839L327.874,254.979C333.102,254.958 338.33,254.94 343.558,254.93C345.404,254.926 346.846,255.417 347.119,255.51C348.175,255.869 348.185,255.851 349.12,256.455C350.479,257.333 350.548,257.257 351.649,258.443C354.952,261.996 354.605,266.134 354.545,266.842C354.497,267.419 354.228,270.626 351.614,273.46C348.628,276.698 331.309,295.323 324.858,302.249C324.042,303.744 322.715,305.44 320.561,306.742C318.267,308.128 316.007,308.412 314.581,308.426C313.238,308.491 311.658,308.332 309.97,307.687C307.184,306.621 305.475,304.784 304.502,303.369Z" style="fill:rgb(31,20,25);"/>
</svg>
