<?xml version="1.0" encoding="UTF-8" standalone="no"?>
<!DOCTYPE svg PUBLIC "-//W3C//DTD SVG 1.1//EN" "http://www.w3.org/Graphics/SVG/1.1/DTD/svg11.dtd">
<svg width="100%" height="100%" viewBox="0 0 422 422" version="1.1" xmlns="http://www.w3.org/2000/svg" xmlns:xlink="http://www.w3.org/1999/xlink" xml:space="preserve" xmlns:serif="http://www.serif.com/" style="fill-rule:evenodd;clip-rule:evenodd;stroke-linejoin:round;stroke-miterlimit:2;">
    <g transform="matrix(1,0,0,1,-4608.41,-4207.14)">
        <g transform="matrix(1,0,0,1,3855.48,3674)">
            <g transform="matrix(0.727425,0,0,-0.727425,151.893,1125.75)">
                <path d="M980.507,778.013C995.786,786.479 1067.94,827.245 1167.12,810.809C1246.81,797.601 1325.12,749.9 1370.8,667.041C1377.23,655.374 1401.61,610.586 1405.69,547.585C1405.84,545.281 1406.63,535.255 1406.04,515.223C1405.72,504.434 1404.27,459.696 1382.25,408.766C1325.45,277.385 1178.48,206.14 1036.37,245.522C995.333,256.896 956.701,277.924 926.212,303.492C926.002,303.669 903.988,321.764 885.412,345.733C877.601,355.812 870.407,366.422 863.895,377.467C863.595,377.977 858.062,387.521 852.078,400.64C845.616,414.803 838.332,433.31 832.866,458.455C829.325,474.747 822.928,509.452 828.359,554.957C835.717,616.611 860.178,658.296 868.191,671.54C904.512,731.572 951.886,761.472 972.533,773.25C973.178,773.618 973.123,773.703 980.507,778.013ZM1008.01,730.223C1003.68,727.696 1001.82,726.716 994.94,721.627C939.651,680.725 920.417,629.019 914.066,610.447C895.787,557 902.569,512.443 906.23,493.575C907.287,488.131 910.796,469.886 921.312,445.613C926.036,434.708 930.379,426.817 936.888,415.822C936.974,415.677 944.1,403.05 957.202,386.843C959.737,383.707 975.873,363.498 1001.26,345.231C1010.32,338.71 1068.71,295.973 1153.78,303.645C1225.29,310.093 1289.02,350.429 1326.51,409.736C1349.42,445.982 1356.08,478.43 1358.16,489.087C1358.91,492.928 1362.19,510.201 1362.35,526.737C1362.77,568.764 1352.03,599.061 1347.55,610.912C1312.82,702.816 1225.81,762.909 1128.55,763.312C1065.62,763.572 1022.12,738.568 1008.08,730.267L1008.01,730.223ZM996.91,425.21C995.571,424.425 994.446,423.307 993.107,422.521C992.435,422.127 991.669,421.909 990.919,421.697C986.233,420.372 982.432,422 981.757,422.289C980.922,422.646 976.116,424.704 974.09,430.662C973.451,432.545 973.417,434.898 973.411,435.271C973.397,436.23 973.489,437.188 973.479,438.147C973.295,456.041 972.993,473.933 972.829,491.827C972.571,520.047 972.381,548.268 972.213,576.489C972.085,598.087 972.033,619.685 971.943,641.284C971.905,650.332 977.523,655.541 978.492,656.439C979.336,657.221 980.249,657.936 981.211,658.568C982.568,659.458 990.626,664.746 1001.43,660.146C1001.48,660.125 1004.54,658.432 1004.57,658.407C1005.54,657.695 1006.51,656.979 1007.38,656.148C1013.73,650.056 1053.55,611.892 1086.27,579.444C1107.94,557.95 1107.97,557.97 1109.64,555.904C1111.84,553.169 1112.01,553.256 1113.41,550.04C1113.94,548.815 1114.36,547.539 1114.67,546.24C1115.42,543.114 1115.31,543.089 1115.2,539.877C1115.1,537.125 1115.09,537.114 1114.24,534.494C1114.05,533.904 1113.04,530.751 1110.62,527.65C1108.13,524.456 1107.86,524.693 996.91,425.21ZM1003.46,474.853C1010.98,483.566 1018.49,492.279 1026,500.997C1033.52,509.725 1040.96,518.525 1048.54,527.2C1052.41,531.629 1056.48,535.88 1060.35,540.309L1010.72,590.759L1003.46,474.853ZM1257.3,385.613C1257.3,384.77 1257.3,379.933 1253.26,375.889C1252.01,374.644 1250.51,373.608 1248.88,372.931C1247.21,372.234 1245.34,372.16 1243.55,371.845C1243.28,371.797 1243,371.879 1242.72,371.845C1237.75,371.216 1232.79,370.478 1227.82,369.856C1225.9,369.615 1212.91,367.99 1203.69,367.312C1198.22,366.91 1148.69,363.765 1139.91,363.275C1128.3,362.628 1116.68,362.045 1105.07,361.537C1093.09,361.014 1093.09,361.143 1081.1,361.143C1079.6,361.143 1071.01,361.143 1063.82,368.331C1061.61,370.544 1059.76,373.222 1058.56,376.111C1058.55,376.133 1056.63,385.615 1056.63,385.626C1057.27,388.789 1057.32,392.134 1058.56,395.114C1059.76,398.004 1061.61,400.681 1063.82,402.894C1066.03,405.108 1068.71,406.949 1071.6,408.152C1074.58,409.392 1077.88,409.765 1081.09,410.082C1084.42,410.412 1087.78,410.137 1091.12,410.082C1095.77,410.006 1100.42,409.891 1105.07,409.688C1116.68,409.18 1128.3,408.597 1139.91,407.95C1148.69,407.46 1198.22,404.315 1203.69,403.913C1212.91,403.235 1225.9,401.61 1227.82,401.369C1232.79,400.747 1237.75,400.01 1242.72,399.38C1242.99,399.346 1243.27,399.38 1243.54,399.38C1244.38,399.38 1249.21,399.38 1253.26,395.336C1257.3,391.292 1257.3,386.455 1257.3,385.613Z" style="fill:rgb(241,84,14);"/>
            </g>
        </g>
    </g>
</svg>
