<?xml version="1.0" encoding="UTF-8" standalone="no"?>
<!DOCTYPE svg PUBLIC "-//W3C//DTD SVG 1.1//EN" "http://www.w3.org/Graphics/SVG/1.1/DTD/svg11.dtd">
<svg width="100%" height="100%" viewBox="0 0 422 422" version="1.1" xmlns="http://www.w3.org/2000/svg" xmlns:xlink="http://www.w3.org/1999/xlink" xml:space="preserve" xmlns:serif="http://www.serif.com/" style="fill-rule:evenodd;clip-rule:evenodd;stroke-linejoin:round;stroke-miterlimit:2;">
    <g transform="matrix(1,0,0,1,-6886.14,-4198.09)">
        <g transform="matrix(1,0,0,1,3855.48,3674)">
            <g transform="matrix(-0.447271,0.447271,0.447271,0.447271,3459.43,24.8066)">
                <path d="M941.84,234.071C922.531,239.611 830.708,265.133 763.423,359.149C709.358,434.694 684.469,537.163 714.702,641.689C718.959,656.406 735.558,712.649 783.471,767.198C785.223,769.194 792.727,777.995 809.502,793.8C818.537,802.312 856.09,837.519 915.411,861.028C1068.44,921.674 1245.89,860.091 1329.42,712.512C1353.55,669.889 1367.86,621.375 1371.86,575.79C1371.89,575.476 1375.08,542.86 1370.69,508.263C1368.85,493.715 1366.07,479.237 1362.38,464.96C1362.21,464.301 1358.95,452.041 1353.15,436.507C1346.89,419.735 1337.76,398.763 1321.76,373.87C1311.39,357.742 1288.37,324.319 1246.95,291.732C1190.83,247.579 1137.04,233.573 1119.75,229.319C1041.4,210.038 978.564,224.248 952.198,231.459C951.373,231.685 951.349,231.571 941.84,234.071ZM958.339,295.295C963.916,293.827 966.221,293.116 975.955,291.66C1054.17,279.96 1111.86,306.366 1132.13,316.303C1190.46,344.902 1221.17,386.649 1233.54,404.97C1237.11,410.256 1249.09,427.946 1260.28,456.236C1265.3,468.944 1268.19,478.893 1271.84,493.127C1271.88,493.315 1276.36,509.378 1278.88,533.212C1279.37,537.823 1282.68,567.378 1276.89,602.876C1274.83,615.548 1262.1,697.779 1186.68,760.722C1123.29,813.626 1038.67,832.651 959.955,814.907C911.849,804.063 880.047,783.095 869.686,776.123C865.952,773.61 849.242,762.227 835.662,748.913C801.148,715.077 785.244,681.706 779.249,668.427C732.758,565.45 754.645,445.829 833.412,366.408C884.372,315.025 940.076,299.985 958.242,295.32L958.339,295.295ZM962.874,694.163C969.555,694.146 973.497,690.203 974.189,689.511C975.617,688.084 976.8,686.349 977.557,684.477C977.84,683.777 976.686,683.491 979.827,675.321C981.027,672.2 982.134,669.674 982.134,669.671C982.522,668.135 984.775,643.105 999.13,616.109C1016.43,583.573 1045.11,558.478 1079.72,545.446C1083.48,544.028 1104.06,534.677 1133.92,534.489C1140.04,534.451 1140.14,534.606 1145.78,532.251C1149.11,530.865 1152.19,528.747 1154.73,526.201C1157.28,523.656 1159.39,520.579 1160.78,517.258C1160.79,517.232 1163,506.343 1163,506.33C1162.26,502.692 1162.2,498.845 1160.78,495.419C1159.39,492.096 1157.28,489.016 1154.73,486.471C1152.19,483.926 1149.11,481.808 1145.78,480.425C1139.38,477.76 1139.22,478.133 1132.28,478.221C1106.73,478.545 1082.04,483.688 1059.22,493.017C1057.63,493.67 1044.34,499.402 1030.52,508.583C976.635,544.364 946.184,602.776 944.26,659.991C944.131,663.837 944.154,667.047 944.154,667.301C944.157,668.469 946.785,677.429 947.041,678.302C947.045,678.316 947.038,678.331 947.041,678.345C947.487,680.389 947.562,682.553 948.385,684.477C948.761,685.354 950.933,690.432 956.821,692.913C957.277,693.105 959.805,694.17 962.874,694.163ZM842.928,676.783C843.959,676.785 849.877,676.794 854.834,671.853C856.36,670.332 857.63,668.49 858.462,666.502C860.081,662.632 859.783,662.527 859.807,658.329C859.807,658.32 860.951,643.602 865.513,624.88C865.803,623.69 868.336,613.649 870.542,606.414C870.684,605.948 874.762,591.503 884.354,570.99C886.225,566.988 892.283,554.561 899.573,542.781C905.697,532.888 918.477,511.669 945.28,486.897C951.493,481.156 974.342,460.066 1011.36,443.456C1053.66,424.472 1090.7,422.833 1108.27,422.806C1109.99,422.803 1119.88,422.787 1128.13,414.508C1130.67,411.958 1132.79,408.876 1134.16,405.55C1134.17,405.525 1136.37,394.618 1136.37,394.604C1135.62,390.968 1135.56,387.121 1134.13,383.697C1132.74,380.376 1130.62,377.3 1128.07,374.759C1125.52,372.218 1122.44,370.105 1119.11,368.727C1112.6,366.03 1112.43,366.471 1105.39,366.538C1015.51,367.393 956.373,408.421 942.154,418.383C908.643,441.859 889.542,465.609 883.842,472.689C870.825,488.859 861.938,503.416 856.359,513.389C854.986,515.843 848.414,528.322 843.894,539.657C838.53,553.106 833.752,567.574 829.935,587.249C829.59,589.025 827.459,600.013 826.515,609.595C824.249,632.601 825.795,653.407 826.078,657.205C826.161,658.334 826.086,659.816 826.108,659.926C826.547,662.102 826.577,664.403 827.427,666.453C827.816,667.391 830.056,672.794 836.389,675.444C839.509,676.749 839.546,676.778 842.928,676.783ZM1133.83,644.447C1134.25,636.76 1134.62,629.07 1134.96,621.379C1135.37,612.07 1135.27,612.07 1135.27,602.751C1135.27,601.587 1135.27,594.906 1129.68,589.319C1127.96,587.599 1125.88,586.168 1123.63,585.233C1123.62,585.226 1116.25,583.731 1116.24,583.733C1113.78,584.231 1111.18,584.269 1108.87,585.233C1106.62,586.168 1104.54,587.599 1102.82,589.319C1101.1,591.039 1099.67,593.121 1098.73,595.366C1097.77,597.682 1097.48,600.244 1097.23,602.74C1096.98,605.328 1097.19,607.941 1097.23,610.541C1097.29,614.155 1097.38,617.769 1097.54,621.379C1097.84,628.356 1098.18,635.331 1098.55,642.304C1091.58,641.933 1084.61,641.593 1077.63,641.288C1074.02,641.13 1070.4,641.041 1066.79,640.982C1064.19,640.939 1061.58,640.726 1058.99,640.982C1056.49,641.228 1053.93,641.518 1051.62,642.482C1049.37,643.417 1047.29,644.848 1045.57,646.568C1043.85,648.288 1042.42,650.37 1041.48,652.616C1040.52,654.931 1040.48,657.531 1039.98,659.989C1039.98,659.998 1041.47,667.367 1041.48,667.384C1042.42,669.63 1043.85,671.712 1045.57,673.432C1051.15,679.018 1057.84,679.018 1059,679.018C1068.32,679.018 1068.32,679.119 1077.63,678.712C1085.32,678.376 1093.01,677.997 1100.7,677.581C1101.32,687.323 1101.88,696.124 1102.03,698.032C1102.55,705.197 1103.82,715.288 1104,716.785C1104.49,720.65 1105.06,724.503 1105.55,728.367C1105.58,728.576 1105.55,728.788 1105.55,728.998C1105.55,729.653 1105.55,733.412 1108.69,736.555C1111.84,739.699 1115.59,739.699 1116.25,739.699C1116.9,739.699 1120.66,739.699 1123.81,736.555C1124.77,735.587 1125.58,734.416 1126.11,733.153C1126.65,731.851 1126.7,730.397 1126.95,729.009C1126.99,728.798 1126.92,728.579 1126.95,728.367C1127.44,724.503 1128.01,720.65 1128.5,716.785C1128.68,715.288 1129.95,705.197 1130.47,698.032C1130.62,696 1131.26,686.151 1131.92,675.674C1142.4,675.009 1152.25,674.373 1154.28,674.223C1161.45,673.697 1171.54,672.434 1173.03,672.246C1176.9,671.763 1180.75,671.189 1184.62,670.701C1184.83,670.674 1185.05,670.738 1185.26,670.701C1186.65,670.456 1188.1,670.398 1189.4,669.856C1190.66,669.33 1191.84,668.525 1192.8,667.557C1195.95,664.414 1195.95,660.655 1195.95,660C1195.95,659.345 1195.95,655.586 1192.8,652.443C1189.66,649.299 1185.9,649.299 1185.25,649.299C1185.04,649.299 1184.83,649.326 1184.62,649.299C1180.75,648.81 1176.9,648.237 1173.03,647.754C1171.54,647.566 1161.45,646.303 1154.28,645.777C1152.37,645.636 1143.57,645.067 1133.83,644.447Z" style="fill:rgb(241,84,14);"/>
            </g>
        </g>
    </g>
</svg>
