<?xml version="1.0" encoding="UTF-8" standalone="no"?>
<!DOCTYPE svg PUBLIC "-//W3C//DTD SVG 1.1//EN" "http://www.w3.org/Graphics/SVG/1.1/DTD/svg11.dtd">
<svg width="100%" height="100%" viewBox="0 0 422 422" version="1.1" xmlns="http://www.w3.org/2000/svg" xmlns:xlink="http://www.w3.org/1999/xlink" xml:space="preserve" xmlns:serif="http://www.serif.com/" style="fill-rule:evenodd;clip-rule:evenodd;stroke-linejoin:round;stroke-miterlimit:2;">
    <rect id="Shapes" x="-3592.69" y="-48.832" width="4202" height="1482" style="fill:none;"/>
    <path d="M112.205,26.669C123.32,20.51 175.805,-9.144 247.95,2.812C305.921,12.42 362.884,47.119 396.113,107.392C400.792,115.879 418.524,148.46 421.492,194.288C421.6,195.964 422.181,203.257 421.747,217.829C421.513,225.677 420.464,258.22 404.446,295.268C363.126,390.838 256.213,442.663 152.845,414.016C122.991,405.742 94.889,390.446 72.71,371.847C72.557,371.718 56.544,358.555 43.031,341.12C37.349,333.788 32.116,326.07 27.379,318.036C27.161,317.665 23.137,310.722 18.783,301.179C14.083,290.877 8.784,277.414 4.808,259.123C2.232,247.272 -2.421,222.026 1.529,188.925C6.882,144.076 24.675,113.754 30.504,104.12C56.925,60.451 91.386,38.701 106.405,30.134C106.874,29.866 106.834,29.804 112.205,26.669ZM132.21,61.432C129.059,63.27 127.71,63.983 122.705,67.685C82.486,97.438 68.495,135.051 63.875,148.56C50.578,187.439 55.512,219.851 58.175,233.576C58.944,237.536 61.496,250.808 69.146,268.465C72.582,276.397 75.742,282.137 80.476,290.135C80.538,290.241 85.722,299.426 95.253,311.216C97.097,313.497 108.835,328.197 127.301,341.485C133.893,346.228 176.365,377.316 238.25,371.736C290.266,367.045 336.626,337.704 363.895,294.563C380.561,268.196 385.406,244.593 386.922,236.841C387.468,234.047 389.851,221.481 389.97,209.453C390.273,178.882 382.461,156.843 379.203,148.222C353.938,81.369 290.646,37.655 219.893,37.363C174.118,37.173 142.476,55.362 132.265,61.4L132.21,61.432ZM207.803,315.038C207.092,314.649 206.361,314.18 205.639,313.615C204.923,313.056 204.269,312.418 203.641,311.761L144.262,249.007C143.832,248.553 143.374,248.126 142.967,247.653C142.442,247.043 141.915,246.43 141.471,245.76C140.96,244.988 137.961,240.461 139.55,234.344C139.778,233.466 141.114,228.324 146.61,225.479C147.095,225.228 149.696,223.882 153.246,223.885C163.981,223.895 174.716,224.051 185.451,224.082C188.943,224.092 192.434,224.1 195.925,224.107C195.601,208.781 195.282,193.455 194.984,178.129C194.365,146.255 194.444,146.257 194.29,114.38C194.285,113.329 194.257,107.665 198.256,101.857C203.501,94.24 211.127,92.758 212.463,92.499C213.173,92.361 216.991,91.619 221.502,92.578C222.834,92.861 230.432,94.477 235.542,102.185C239.439,108.063 239.312,113.726 239.288,114.776C238.573,146.646 238.642,146.645 237.472,178.502L235.727,224.107C279.895,224.016 280.096,223.414 283.779,224.659C289.486,226.588 291.556,231.305 291.911,232.113C292.268,232.926 294.339,237.647 291.883,243.206C291.735,243.54 290.946,245.326 289.378,247.024C281.843,255.186 227.489,313.745 227.416,313.797C225.839,314.907 224.445,316.341 222.683,317.126C220.974,317.888 219.075,318.296 217.205,318.349C215.335,318.402 213.415,318.103 211.666,317.44C211.654,317.436 209.248,315.939 207.803,315.038Z" style="fill:#f1540d;"/>
    <path d="M211.949,242.191L214.665,242.191C215.256,243.619 215.954,245 216.545,246.428C217.54,248.833 218.555,251.233 219.42,253.687C220.431,256.553 221.338,259.457 222.171,262.38C222.581,263.822 222.842,265.302 223.149,266.769C223.472,268.315 223.111,270.992 223.062,271.356C222.888,272.642 222.586,273.912 222.208,275.152C221.927,276.075 221.473,276.936 221.092,277.822C219.519,281.476 216.177,284.28 215.638,284.733C214.636,285.573 213.557,286.329 212.425,286.983C210.186,288.275 210.18,288.289 207.682,288.959C204.484,289.815 204.482,289.878 201.175,289.997C199.601,290.054 195.786,290.191 181.496,289.391C180.228,289.32 178.952,289.238 177.705,288.997C167.776,287.083 163.67,279.476 162.975,278.19C160.215,273.076 160.399,268.376 160.434,267.497C160.689,260.979 162.487,244.212 162.703,242.191C162.819,241.109 162.929,240.02 163.182,238.962C163.466,237.772 165.175,230.618 172.752,227.045C176.17,225.433 178.862,225.465 179.41,225.472C180.105,225.48 180.818,225.353 181.496,225.508C184.496,226.191 187.451,227.065 190.391,227.974C193.826,229.036 197.188,230.323 200.613,231.417C200.791,231.474 200.988,231.404 201.175,231.417C201.8,231.459 202.429,231.472 203.046,231.58C203.763,231.707 207.993,232.453 210.505,236.804C210.818,237.346 211.137,237.901 211.299,238.506C211.622,239.711 211.626,240.986 211.949,242.191Z" style="fill:none;"/>
    <path d="M262.878,247.19L265.594,247.19C266.185,248.618 266.883,249.999 267.474,251.427C268.469,253.832 269.484,256.231 270.349,258.686C271.36,261.552 272.267,264.456 273.1,267.379C273.51,268.821 273.771,270.301 274.077,271.768C274.401,273.314 274.04,275.991 273.991,276.355C273.817,277.64 273.515,278.911 273.137,280.151C272.856,281.074 272.402,281.935 272.02,282.821C270.448,286.475 267.106,289.279 266.566,289.732C265.565,290.572 264.486,291.328 263.354,291.982C261.115,293.274 261.109,293.288 258.611,293.957C255.413,294.814 255.41,294.877 252.104,294.996C250.53,295.052 246.714,295.189 232.425,294.39C231.156,294.319 229.881,294.237 228.634,293.996C218.705,292.082 214.598,284.475 213.904,283.189C211.143,278.075 211.328,273.375 211.362,272.496C211.618,265.978 213.416,249.211 213.632,247.19C213.748,246.108 213.858,245.019 214.111,243.961C214.395,242.771 216.104,235.617 223.681,232.044C227.099,230.432 229.791,230.464 230.339,230.471C231.034,230.479 231.747,230.352 232.425,230.507C235.425,231.19 238.38,232.064 241.32,232.973C244.755,234.035 248.117,235.322 251.541,236.416C251.72,236.473 251.917,236.403 252.104,236.416C252.728,236.458 253.358,236.471 253.975,236.579C258.922,237.452 261.07,241.172 261.434,241.803C261.747,242.345 262.066,242.9 262.228,243.505C262.551,244.71 262.555,245.985 262.878,247.19Z" style="fill:none;"/>
</svg>
